<?xml version="1.0" encoding="UTF-8"?>
<svg version="1.1" xmlns="http://www.w3.org/2000/svg" width="1024" height="1024">
<path d="M0 0 C0.33 0.66 0.66 1.32 1 2 C2.66059667 2.36236388 4.32863091 2.69110801 6 3 C35.19452384 14.60806153 54.28066247 45.27965374 67.8203125 72.109375 C69 75 69 75 69 79 C67 78 67 78 66 75.75 C62.10166709 70.38979225 55.39517161 68.05440105 49 67 C49.86625 67.495 50.7325 67.99 51.625 68.5 C58.07880971 72.80344306 62.09996694 80.50850795 66.3359375 86.8671875 C67.3279999 88.34513606 68.32019143 89.82299796 69.3125 91.30078125 C70.8432129 93.58559535 72.3725378 95.87131143 73.89941406 98.15869141 C79.20710429 106.1031162 84.46468404 113.92950052 90.65869141 121.21923828 C92 123 92 123 92 125 C92.99 125.33 93.98 125.66 95 126 C95 126.66 95 127.32 95 128 C95.598125 128.2475 96.19625 128.495 96.8125 128.75 C99.28647521 130.16370012 100.43370255 131.65055383 102 134 C91.36811123 148.15952007 72.59710478 155.66593478 55.609375 158.58203125 C31.61679696 161.36039256 8.45584154 155.42937419 -10.7421875 140.671875 C-20.3568781 132.95055635 -29.65915432 123.75559165 -34 112 C-37.50258708 112.60306489 -37.92393128 112.90507054 -40.31494141 115.88891602 C-41.1725074 117.16927279 -42.01720679 118.45830467 -42.8515625 119.75390625 C-43.31049896 120.44701401 -43.76943542 121.14012177 -44.24227905 121.85423279 C-45.71412035 124.08334202 -47.1694498 126.3227281 -48.625 128.5625 C-49.58101292 130.01304146 -50.5380348 131.46291847 -51.49609375 132.91210938 C-56.57396199 140.61803426 -61.52012658 148.39880353 -66.38809204 156.23864746 C-70.45659028 162.77269605 -74.70790779 169.17327441 -79 175.5625 C-79.78848911 176.74015483 -80.57673471 177.91797272 -81.36474609 179.09594727 C-82.89403844 181.38146549 -84.42445586 183.66622212 -85.95605469 185.95019531 C-88.51922584 189.77474549 -91.07316813 193.60537997 -93.625 197.4375 C-94.38927917 198.58336251 -95.15359993 199.72919729 -95.91796875 200.875 C-97.27715733 202.91505791 -98.63403499 204.9566579 -99.98828125 207 C-121.72836523 239.76261152 -141.4242409 267.89255277 -181.43359375 277.58984375 C-204.69027855 281.30666552 -229.57296592 278.65383976 -253 278 C-251.67579054 274.5764856 -250.3132598 271.82534032 -248.125 268.875 C-244.64004635 264.00907924 -241.42839085 259.00586836 -238.25 253.9375 C-234.3505365 247.72469212 -230.42944854 241.52886573 -226.4375 235.375 C-225.98431396 234.67624756 -225.53112793 233.97749512 -225.06420898 233.25756836 C-223.71013774 231.17127952 -222.35510637 229.0856166 -221 227 C-219.26951398 224.33418694 -217.54050769 221.66742015 -215.8125 219 C-215.36648437 218.31196289 -214.92046875 217.62392578 -214.4609375 216.91503906 C-211.75092147 212.72768791 -209.05991426 208.52878939 -206.3828125 204.3203125 C-198.89837861 192.56295753 -191.29688035 180.90501484 -183.52755737 169.33514404 C-178.39924892 161.69069923 -173.43830774 153.97385077 -168.69799805 146.08251953 C-165.14997968 140.18771001 -161.37259547 134.47333394 -157.52734375 128.76953125 C-154.82272013 124.75325495 -152.18791112 120.69336749 -149.5625 116.625 C-149.10488281 115.91593506 -148.64726562 115.20687012 -148.17578125 114.47631836 C-147.24728818 113.03679548 -146.31906631 111.59709763 -145.39111328 110.15722656 C-143.0984673 106.60197562 -140.79886482 103.05123148 -138.5 99.5 C-137.57680932 98.07292546 -136.65363221 96.64584214 -135.73046875 95.21875 C-133.96393442 92.4884807 -132.19566804 89.75934714 -130.42578125 87.03125 C-129.55459049 85.68756289 -128.68349819 84.34381194 -127.8125 83 C-127.15121094 81.98015015 -127.15121094 81.98015015 -126.4765625 80.93969727 C-123.67805195 76.61601807 -120.90110648 72.27917612 -118.13671875 67.93359375 C-96.33923717 33.67855576 -96.33923717 33.67855576 -86 23 C-85.47664062 22.40316406 -84.95328125 21.80632812 -84.4140625 21.19140625 C-63.44552765 -1.85269423 -29.0948071 -7.61424724 0 0 Z " fill="#0083FE" transform="translate(394,400)"/>
<path d="M0 0 C2.40013269 1.88016674 4.67006267 3.83643168 6.92578125 5.88671875 C8.16328125 6.94826172 8.16328125 6.94826172 9.42578125 8.03125 C22.62466349 19.51991122 37.33729059 35.85512817 42.92578125 52.88671875 C42.59578125 53.54671875 42.26578125 54.20671875 41.92578125 54.88671875 C41.19875 54.48839844 40.47171875 54.09007812 39.72265625 53.6796875 C29.64979965 48.37206691 20.3677172 45.31462195 8.92578125 45.88671875 C8.92578125 45.22671875 8.92578125 44.56671875 8.92578125 43.88671875 C-14.54939322 46.56017856 -33.41937638 52.51206811 -48.91796875 71.5 C-53.06003887 76.75474955 -56.78506255 82.22967321 -60.44921875 87.82421875 C-61.84612891 89.93895089 -63.24327358 92.05352815 -64.640625 94.16796875 C-65.36266113 95.26367188 -66.08469727 96.359375 -66.82861328 97.48828125 C-69.11464084 100.95292251 -71.41864159 104.40538473 -73.7265625 107.85546875 C-74.50512785 109.01961203 -75.2836923 110.18375591 -76.06225586 111.34790039 C-76.44622528 111.92202667 -76.8301947 112.49615295 -77.22579956 113.087677 C-82.50431422 120.98345576 -87.75739697 128.89287099 -92.88671875 136.88671875 C-109.45345813 162.65578899 -109.45345813 162.65578899 -119.07421875 173.88671875 C-119.73164062 174.68851563 -120.3890625 175.4903125 -121.06640625 176.31640625 C-134.65540048 192.29467419 -153.64298462 204.04774224 -174.07421875 208.88671875 C-175.25371094 209.20189453 -175.25371094 209.20189453 -176.45703125 209.5234375 C-203.58699886 216.00703993 -234.98253715 209.92093288 -258.84277344 195.84326172 C-262.73882747 193.38974101 -266.41604819 190.68358654 -270.07421875 187.88671875 C-271.01910156 187.17644531 -271.96398437 186.46617187 -272.9375 185.734375 C-283.36674666 177.57684543 -291.51718193 167.92431764 -299.32421875 157.32421875 C-299.90993652 156.53797119 -300.4956543 155.75172363 -301.09912109 154.94165039 C-301.63230957 154.20035889 -302.16549805 153.45906738 -302.71484375 152.6953125 C-303.19469727 152.03329834 -303.67455078 151.37128418 -304.16894531 150.68920898 C-304.61705566 149.79697632 -304.61705566 149.79697632 -305.07421875 148.88671875 C-304.74421875 147.89671875 -304.41421875 146.90671875 -304.07421875 145.88671875 C-303.45675781 146.29664063 -302.83929688 146.7065625 -302.203125 147.12890625 C-296.48177024 150.76897671 -291.77073903 152.80663483 -285.07421875 153.88671875 C-285.07421875 154.54671875 -285.07421875 155.20671875 -285.07421875 155.88671875 C-257.51902248 158.93076724 -232.52648643 156.53245078 -209.88671875 139.13671875 C-198.96237746 129.81677742 -190.1052895 119.52151494 -181.61621094 107.97998047 C-180.19039967 106.0444349 -178.74892124 104.12198868 -177.30078125 102.203125 C-170.91810945 93.694063 -165.01825121 84.89105455 -159.1484375 76.0234375 C-103.87816823 -7.40364652 -103.87816823 -7.40364652 -65.6796875 -15.41796875 C-41.60482586 -19.57853047 -19.90197642 -13.68102826 0 0 Z " fill="#E12A2E" transform="translate(703.07421875,414.11328125)"/>
<path d="M0 0 C11.85228769 9.82736706 18.86299993 24.85872316 26.296875 38.04296875 C29.12634831 43.04895999 32.08432757 47.95352782 35.13452148 52.82861328 C37.04607961 55.89002506 38.94203056 58.96039722 40.83203125 62.03515625 C41.53660009 63.1810025 42.24119061 64.32683541 42.94580078 65.47265625 C43.4837326 66.34760742 43.4837326 66.34760742 44.03253174 67.24023438 C45.78472425 70.0893343 47.5389441 72.93718388 49.29296875 75.78515625 C50.671875 78.02473958 52.05078125 80.26432292 53.4296875 82.50390625 C53.7810376 83.07431641 54.1323877 83.64472656 54.49438477 84.23242188 C55.53167789 85.91650339 56.56857818 87.60082685 57.60546875 89.28515625 C58.20915283 90.26548828 58.81283691 91.24582031 59.43481445 92.25585938 C60.54615108 94.07115542 61.63891147 95.89797067 62.71166992 97.73632812 C64.05113223 100.09017596 64.05113223 100.09017596 66.1171875 102.00390625 C66.89877572 103.32425229 67.64439579 104.66610377 68.3671875 106.01953125 C71.1104725 111.04487644 74.0843216 115.89928378 77.1171875 120.75390625 C78.27222397 122.610622 79.42716929 124.46739445 80.58203125 126.32421875 C81.16839355 127.26555664 81.75475586 128.20689453 82.35888672 129.17675781 C84.05568124 131.90501115 85.74607178 134.63709716 87.43359375 137.37109375 C93.17021578 146.66481725 98.94322237 155.93346909 104.7890625 165.15893555 C107.20114275 168.96610432 109.60435276 172.77815776 111.984375 176.60546875 C112.66657104 177.70217896 112.66657104 177.70217896 113.36254883 178.82104492 C114.21293305 180.19001378 115.0618369 181.55990385 115.90893555 182.9309082 C117.48779571 185.4720382 119.07236243 187.94548589 120.89453125 190.3203125 C122.1171875 192.00390625 122.1171875 192.00390625 122.1171875 194.00390625 C118.78321676 196.0082509 116.31434109 196.23334244 112.45336914 196.17089844 C111.31440689 196.15718201 110.17544464 196.14346558 109.00196838 196.1293335 C107.77284225 196.10341125 106.54371613 196.07748901 105.27734375 196.05078125 C104.00426865 196.03049866 102.73119354 196.01021606 101.41954041 195.98931885 C98.72013593 195.94371086 96.02118072 195.89399574 93.32202148 195.83740234 C89.90000464 195.76613133 86.47798347 195.71174882 83.05558109 195.66294479 C79.75432581 195.61366276 76.45338314 195.55037635 73.15234375 195.48828125 C71.9414357 195.47045593 70.73052765 195.45263062 69.48292542 195.43426514 C43.1792037 194.84107693 19.7376599 186.33864369 1.08984375 167.32397461 C-8.49661193 157.22177034 -15.78846752 145.26731297 -23.4296875 133.6875 C-27.44069138 127.63267548 -31.54165717 121.64176201 -35.64955139 115.65238953 C-41.71270808 106.80616581 -47.71134939 97.91679821 -53.7043457 89.02294922 C-55.57879187 86.2413231 -57.45436285 83.46045795 -59.33007812 80.6796875 C-66.21141325 70.47452167 -73.06670421 60.25273919 -79.8828125 50.00390625 C-81.03620973 48.27327179 -82.18982518 46.54278272 -83.34375 44.8125 C-89.21875 36 -89.21875 36 -90.58496094 33.92529297 C-91.41117966 32.70212868 -92.2661891 31.49758475 -93.15722656 30.32080078 C-94.92537125 27.94433554 -95.88429415 26.48322129 -95.875 23.4765625 C-94.64327105 20.40693877 -93.00784158 18.07514418 -91.0078125 15.44140625 C-90.30914063 14.51199219 -89.61046875 13.58257812 -88.890625 12.625 C-88.22804688 11.76003906 -87.56546875 10.89507812 -86.8828125 10.00390625 C-86.34398437 9.23175781 -85.80515625 8.45960938 -85.25 7.6640625 C-84.79882812 7.11621094 -84.34765625 6.56835938 -83.8828125 6.00390625 C-83.2228125 6.00390625 -82.5628125 6.00390625 -81.8828125 6.00390625 C-81.8828125 5.34390625 -81.8828125 4.68390625 -81.8828125 4.00390625 C-57.96429748 -17.24308179 -25.99883028 -18.0019001 0 0 Z " fill="#FB2E0F" transform="translate(744.8828125,483.99609375)"/>
<path d="M0 0 C-2 1 -2 1 -4.6015625 0.22265625 C-6.09816406 -0.35162109 -6.09816406 -0.35162109 -7.625 -0.9375 C-8.62789063 -1.31777344 -9.63078125 -1.69804687 -10.6640625 -2.08984375 C-11.82035156 -2.54037109 -11.82035156 -2.54037109 -13 -3 C-12.29875 -2.505 -11.5975 -2.01 -10.875 -1.5 C-5.02728247 3.58497177 -0.93873574 10.45041077 3.3359375 16.8671875 C4.3279999 18.34513606 5.32019143 19.82299796 6.3125 21.30078125 C7.8432129 23.58559535 9.3725378 25.87131143 10.89941406 28.15869141 C16.20710429 36.1031162 21.46468404 43.92950052 27.65869141 51.21923828 C29 53 29 53 29 55 C29.99 55.33 30.98 55.66 32 56 C32 56.66 32 57.32 32 58 C32.598125 58.2475 33.19625 58.495 33.8125 58.75 C36.28647521 60.16370012 37.43370255 61.65055383 39 64 C28.36811123 78.15952007 9.59710478 85.66593478 -7.390625 88.58203125 C-31.38320304 91.36039256 -54.54415846 85.42937419 -73.7421875 70.671875 C-83.3568781 62.95055635 -92.65915432 53.75559165 -97 42 C-100.50258708 42.60306489 -100.92393128 42.90507054 -103.31494141 45.88891602 C-104.1725074 47.16927279 -105.01720679 48.45830467 -105.8515625 49.75390625 C-106.31049896 50.44701401 -106.76943542 51.14012177 -107.24227905 51.85423279 C-108.71412035 54.08334202 -110.1694498 56.3227281 -111.625 58.5625 C-112.58101292 60.01304146 -113.5380348 61.46291847 -114.49609375 62.91210938 C-119.57396199 70.61803426 -124.52012658 78.39880353 -129.38809204 86.23864746 C-133.45659028 92.77269605 -137.70790779 99.17327441 -142 105.5625 C-142.78848911 106.74015483 -143.57673471 107.91797272 -144.36474609 109.09594727 C-145.89403844 111.38146549 -147.42445586 113.66622212 -148.95605469 115.95019531 C-151.51922584 119.77474549 -154.07316813 123.60537997 -156.625 127.4375 C-157.38927917 128.58336251 -158.15359993 129.72919729 -158.91796875 130.875 C-160.27715733 132.91505791 -161.63403499 134.9566579 -162.98828125 137 C-184.72836523 169.76261152 -204.4242409 197.89255277 -244.43359375 207.58984375 C-267.69027855 211.30666552 -292.57296592 208.65383976 -316 208 C-314.67579054 204.5764856 -313.3132598 201.82534032 -311.125 198.875 C-307.64004635 194.00907924 -304.42839085 189.00586836 -301.25 183.9375 C-297.3505365 177.72469212 -293.42944854 171.52886573 -289.4375 165.375 C-288.98431396 164.67624756 -288.53112793 163.97749512 -288.06420898 163.25756836 C-286.71013774 161.17127952 -285.35510637 159.0856166 -284 157 C-282.26951398 154.33418694 -280.54050769 151.66742015 -278.8125 149 C-278.36648438 148.31196289 -277.92046875 147.62392578 -277.4609375 146.91503906 C-274.75092147 142.72768791 -272.05991426 138.52878939 -269.3828125 134.3203125 C-261.89837861 122.56295753 -254.29688035 110.90501484 -246.52755737 99.33514404 C-241.39924892 91.69069923 -236.43830774 83.97385077 -231.69799805 76.08251953 C-228.14997968 70.18771001 -224.37259547 64.47333394 -220.52734375 58.76953125 C-217.82271869 54.7532528 -215.18800716 50.69330749 -212.5625 46.625 C-212.10560791 45.91738525 -211.64871582 45.20977051 -211.17797852 44.48071289 C-209.78447633 42.3210172 -208.3920424 40.16063684 -207 38 C-200.08862128 27.27261162 -193.11064436 16.59655677 -186 6 C-185.67 6.99 -185.34 7.98 -185 9 C-186.3641116 11.24294271 -187.7455274 13.2825614 -189.3125 15.375 C-192.06067377 19.09586587 -194.50033623 22.5755776 -196 27 C-196.66 27 -197.32 27 -198 27 C-198.37125 28.051875 -198.37125 28.051875 -198.75 29.125 C-200.16039511 32.36890874 -202.02649053 35.07156659 -204 38 C-204.33 38.99 -204.66 39.98 -205 41 C-205.66 41 -206.32 41 -207 41 C-207.33 42.32 -207.66 43.64 -208 45 C-208.66 45 -209.32 45 -210 45 C-210.32677734 45.9590625 -210.32677734 45.9590625 -210.66015625 46.9375 C-212.52828636 51.20751168 -214.97751462 55.04862844 -217.4375 59 C-218.41547475 60.58326529 -219.39334228 62.16659681 -220.37109375 63.75 C-220.8307251 64.49137207 -221.29035645 65.23274414 -221.76391602 65.99658203 C-222.74812616 67.59176837 -223.71664625 69.19663258 -224.6796875 70.8046875 C-228.14402256 76.56491325 -232.00442324 82.03621364 -236 87.4375 C-239.04610899 91.59494932 -241.77537838 95.82074387 -244.37109375 100.26953125 C-246.70251767 104.17760157 -249.18794634 107.98173016 -251.66796875 111.79663086 C-254.53023729 116.21720504 -257.21990602 120.71732634 -259.80859375 125.3046875 C-260.20175781 125.86414063 -260.59492188 126.42359375 -261 127 C-261.66 127 -262.32 127 -263 127 C-263.25910156 127.7115625 -263.51820313 128.423125 -263.78515625 129.15625 C-265.07625794 132.17850734 -266.64147857 134.74996289 -268.4375 137.5 C-270.99446097 141.43175545 -270.99446097 141.43175545 -273.4453125 145.4296875 C-275.34151757 148.56461949 -277.38718308 151.59009065 -279.4375 154.625 C-285.02561729 162.94910807 -290.36174397 171.42649073 -295.69140625 179.91748047 C-299.98410826 186.74896333 -304.34268155 193.53839279 -308.70703125 200.32421875 C-309.12134399 200.96854858 -309.53565674 201.61287842 -309.96252441 202.2767334 C-310.97494368 203.85120229 -311.98746168 205.42560768 -313 207 C-305.30543318 206.9382433 -297.61115281 206.86075864 -289.91694546 206.76428509 C-286.34252195 206.71993823 -282.76820313 206.68060878 -279.19360352 206.65356445 C-275.73093264 206.62716863 -272.2686728 206.58652541 -268.80626106 206.53681374 C-266.8708909 206.51250134 -264.93536052 206.50219532 -262.99986267 206.49235535 C-250.75222131 206.29366243 -238.99926454 204.6423373 -228 199 C-227.38511719 198.76152344 -226.77023438 198.52304687 -226.13671875 198.27734375 C-219.05081164 195.35789134 -213.84193585 189.63425707 -208.43017578 184.37890625 C-207.30520709 183.2942659 -206.15504466 182.2357519 -204.99609375 181.1875 C-192.50101432 169.62578795 -183.6690342 153.11951779 -174.4375 139 C-172.55250206 136.12508099 -170.66636847 133.25090927 -168.78018188 130.37677002 C-167.55650067 128.51183365 -166.33332943 126.64656255 -165.11068726 124.78094482 C-161.22952954 118.86116349 -157.31969785 112.96157839 -153.38511658 107.07720947 C-149.54522259 101.33051385 -145.77089456 95.54209034 -142 89.75 C-114.85518844 48.19532006 -114.85518844 48.19532006 -105 36 C-103.81076854 34.43881742 -102.62316279 32.87639458 -101.4375 31.3125 C-87.90815526 14.07906551 -69.67948167 -2.8514522 -47.18408203 -6.74365234 C-31.49332766 -8.58529018 -13.53034067 -8.95189206 0 0 Z " fill="#0072F2" transform="translate(457,470)"/>
<path d="M0 0 C9.73998063 7.65749034 15.76068354 19.45451377 17.6015625 31.55859375 C19.19858029 47.73156754 15.91441016 62.12453039 6.0859375 75.17578125 C-3.37319699 85.23952022 -15.40902901 90.71988577 -29.08203125 91.625 C-43.67980003 91.64456805 -56.46987879 86.74085157 -66.99609375 76.62890625 C-76.81533806 65.90327016 -81.78210747 51.49296552 -81.21484375 36.98046875 C-79.90118022 22.85858583 -74.54448202 10.59922728 -64.08984375 0.8515625 C-44.84670026 -14.64547724 -19.85957167 -13.64131048 0 0 Z " fill="#0081FA" transform="translate(411.99609375,285.37109375)"/>
<path d="M0 0 C10.56542129 8.38326147 17.86715153 19.41677205 20.30078125 32.7734375 C21.64353075 46.32881336 19.9506482 60.67671603 11.546875 71.85546875 C9.32889342 74.37573061 7.03763291 76.74830174 4.62890625 79.0859375 C4.05140625 79.67246094 3.47390625 80.25898438 2.87890625 80.86328125 C-6.24002751 89.47804319 -18.65171121 92.63475773 -30.875 92.39453125 C-45.93629769 91.06509827 -58.53414581 84.36521335 -68.24609375 72.89453125 C-76.69616704 61.72614395 -79.78994373 47.45536607 -77.90234375 33.66015625 C-75.5706993 19.8507144 -69.96638403 8.69422848 -58.49609375 0.3984375 C-40.14921602 -11.85112458 -18.61077286 -12.84062058 0 0 Z " fill="#FC2F0E" transform="translate(676.37109375,284.9140625)"/>
<path d="M0 0 C-2 2 -2 2 -4.57519531 2.16357422 C-6.18539551 2.10967529 -6.18539551 2.10967529 -7.828125 2.0546875 C-9.60775635 2.01371948 -9.60775635 2.01371948 -11.42333984 1.97192383 C-12.6861377 1.93993896 -13.94893555 1.9079541 -15.25 1.875 C-33.00052561 1.63597724 -45.860737 5.30780873 -60.3046875 15.8125 C-62 17 -62 17 -64.625 18.5 C-69.65022122 21.67382393 -73.54237262 26.58282665 -77.5625 30.9375 C-78.26536133 31.68676758 -78.26536133 31.68676758 -78.98242188 32.45117188 C-84.52791901 38.03126227 -84.52791901 38.03126227 -87 45 C-86.34 45 -85.68 45 -85 45 C-84.67 44.34 -84.34 43.68 -84 43 C-79.48921881 48.70895744 -75.1375286 54.51105996 -70.89453125 60.421875 C-62.08127803 72.41516805 -50.35405958 80.58680421 -37 87 C-40 88 -40 88 -42.78515625 86.84765625 C-58.66672336 78.19702911 -75.53797286 65.55310257 -82 48 C-85.50258708 48.60306489 -85.92393128 48.90507054 -88.31494141 51.88891602 C-89.1725074 53.16927279 -90.01720679 54.45830467 -90.8515625 55.75390625 C-91.31049896 56.44701401 -91.76943542 57.14012177 -92.24227905 57.85423279 C-93.71412035 60.08334202 -95.1694498 62.3227281 -96.625 64.5625 C-97.58101292 66.01304146 -98.5380348 67.46291847 -99.49609375 68.91210938 C-104.57396199 76.61803426 -109.52012658 84.39880353 -114.38809204 92.23864746 C-118.45659028 98.77269605 -122.70790779 105.17327441 -127 111.5625 C-127.78848911 112.74015483 -128.57673471 113.91797272 -129.36474609 115.09594727 C-130.89403844 117.38146549 -132.42445586 119.66622212 -133.95605469 121.95019531 C-136.51922584 125.77474549 -139.07316813 129.60537997 -141.625 133.4375 C-142.38927917 134.58336251 -143.15359993 135.72919729 -143.91796875 136.875 C-145.27715733 138.91505791 -146.63403499 140.9566579 -147.98828125 143 C-169.72836523 175.76261152 -189.4242409 203.89255277 -229.43359375 213.58984375 C-252.69027855 217.30666552 -277.57296592 214.65383976 -301 214 C-299.67579054 210.5764856 -298.3132598 207.82534032 -296.125 204.875 C-292.64004635 200.00907924 -289.42839085 195.00586836 -286.25 189.9375 C-282.3505365 183.72469212 -278.42944854 177.52886573 -274.4375 171.375 C-273.98431396 170.67624756 -273.53112793 169.97749512 -273.06420898 169.25756836 C-271.71013774 167.17127952 -270.35510637 165.0856166 -269 163 C-267.26951398 160.33418694 -265.54050769 157.66742015 -263.8125 155 C-263.36648438 154.31196289 -262.92046875 153.62392578 -262.4609375 152.91503906 C-259.75092147 148.72768791 -257.05991426 144.52878939 -254.3828125 140.3203125 C-246.89837861 128.56295753 -239.29688035 116.90501484 -231.52755737 105.33514404 C-226.39924892 97.69069923 -221.43830774 89.97385077 -216.69799805 82.08251953 C-213.14997968 76.18771001 -209.37259547 70.47333394 -205.52734375 64.76953125 C-202.82271869 60.7532528 -200.18800716 56.69330749 -197.5625 52.625 C-197.10560791 51.91738525 -196.64871582 51.20977051 -196.17797852 50.48071289 C-194.78447633 48.3210172 -193.3920424 46.16063684 -192 44 C-185.08862128 33.27261162 -178.11064436 22.59655677 -171 12 C-170.67 12.99 -170.34 13.98 -170 15 C-171.3641116 17.24294271 -172.7455274 19.2825614 -174.3125 21.375 C-177.06067377 25.09586587 -179.50033623 28.5755776 -181 33 C-181.66 33 -182.32 33 -183 33 C-183.37125 34.051875 -183.37125 34.051875 -183.75 35.125 C-185.16039511 38.36890874 -187.02649053 41.07156659 -189 44 C-189.33 44.99 -189.66 45.98 -190 47 C-190.66 47 -191.32 47 -192 47 C-192.33 48.32 -192.66 49.64 -193 51 C-193.66 51 -194.32 51 -195 51 C-195.32677734 51.9590625 -195.32677734 51.9590625 -195.66015625 52.9375 C-197.52828636 57.20751168 -199.97751462 61.04862844 -202.4375 65 C-203.41547475 66.58326529 -204.39334228 68.16659681 -205.37109375 69.75 C-205.8307251 70.49137207 -206.29035645 71.23274414 -206.76391602 71.99658203 C-207.74812616 73.59176837 -208.71664625 75.19663258 -209.6796875 76.8046875 C-213.14402256 82.56491325 -217.00442324 88.03621364 -221 93.4375 C-224.04610899 97.59494932 -226.77537838 101.82074387 -229.37109375 106.26953125 C-231.70251767 110.17760157 -234.18794634 113.98173016 -236.66796875 117.79663086 C-239.53023729 122.21720504 -242.21990602 126.71732634 -244.80859375 131.3046875 C-245.20175781 131.86414063 -245.59492188 132.42359375 -246 133 C-246.66 133 -247.32 133 -248 133 C-248.25910156 133.7115625 -248.51820313 134.423125 -248.78515625 135.15625 C-250.07625794 138.17850734 -251.64147857 140.74996289 -253.4375 143.5 C-255.99446097 147.43175545 -255.99446097 147.43175545 -258.4453125 151.4296875 C-260.34151757 154.56461949 -262.38718308 157.59009065 -264.4375 160.625 C-270.02561729 168.94910807 -275.36174397 177.42649073 -280.69140625 185.91748047 C-284.98410826 192.74896333 -289.34268155 199.53839279 -293.70703125 206.32421875 C-294.12134399 206.96854858 -294.53565674 207.61287842 -294.96252441 208.2767334 C-295.97494368 209.85120229 -296.98746168 211.42560768 -298 213 C-290.30543318 212.9382433 -282.61115281 212.86075864 -274.91694546 212.76428509 C-271.34252195 212.71993823 -267.76820313 212.68060878 -264.19360352 212.65356445 C-260.73093264 212.62716863 -257.2686728 212.58652541 -253.80626106 212.53681374 C-251.8708909 212.51250134 -249.93536052 212.50219532 -247.99986267 212.49235535 C-235.75222131 212.29366243 -223.99926454 210.6423373 -213 205 C-212.38511719 204.76152344 -211.77023438 204.52304687 -211.13671875 204.27734375 C-204.05081164 201.35789134 -198.84193585 195.63425707 -193.43017578 190.37890625 C-192.30520709 189.2942659 -191.15504466 188.2357519 -189.99609375 187.1875 C-177.50101432 175.62578795 -168.6690342 159.11951779 -159.4375 145 C-157.55250206 142.12508099 -155.66636847 139.25090927 -153.78018188 136.37677002 C-152.55650067 134.51183365 -151.33332943 132.64656255 -150.11068726 130.78094482 C-146.22952954 124.86116349 -142.31969785 118.96157839 -138.38511658 113.07720947 C-134.54522259 107.33051385 -130.77089456 101.54209034 -127 95.75 C-99.85518844 54.19532006 -99.85518844 54.19532006 -90 42 C-88.81076854 40.43881742 -87.62316279 38.87639458 -86.4375 37.3125 C-72.91822751 20.09189537 -54.68926526 3.15318698 -32.21044922 -0.74804688 C-21.84477278 -1.92955539 -10.23976331 -2.15666248 0 0 Z " fill="#002FBE" transform="translate(442,464)"/>
<path d="M0 0 C0.495 1.485 0.495 1.485 1 3 C0.16339844 2.7834375 -0.67320312 2.566875 -1.53515625 2.34375 C-14.91047811 -0.85566254 -29.41328052 -2.41858058 -41.875 4.625 C-42.57625 5.07875 -43.2775 5.5325 -44 6 C-44.78117188 6.13277344 -45.56234375 6.26554687 -46.3671875 6.40234375 C-54.7480772 8.30483058 -61.9828435 17.48172639 -67 24 C-69.31857236 27.90422189 -69.31857236 27.90422189 -69.9375 32.25 C-68.69412865 34.57095985 -67.37778231 34.95097839 -65 36 C-61.3585616 39.05880826 -59.42193249 42.93953465 -57.68359375 47.30859375 C-56.14015945 50.94025961 -54.06327141 53.74505132 -51.5625 56.8125 C-45.74631644 64.12646421 -40.64962114 71.86517218 -35.52783203 79.67382812 C-33.05500461 83.43878493 -30.55986037 87.18878737 -28.0625 90.9375 C-27.57241455 91.67411865 -27.0823291 92.4107373 -26.57739258 93.16967773 C-22.86987929 98.72943833 -19.09904206 104.24385621 -15.3125 109.75 C-10.81533921 116.29282697 -6.44729012 122.89700854 -2.18359375 129.59375 C5.78674782 142.08365826 14.19242177 154.27480802 23 166.1875 C23.48645996 166.85322021 23.97291992 167.51894043 24.47412109 168.20483398 C28.85220995 174.07807597 33.72774604 179.21865614 39.4375 183.8125 C40.283125 184.534375 41.12875 185.25625 42 186 C42 186.66 42 187.32 42 188 C42.556875 188.268125 43.11375 188.53625 43.6875 188.8125 C50.70909091 192.41818182 50.70909091 192.41818182 52 195 C57.96319844 197.51082039 64.33609932 200 70.875 200 C73.6487438 200 75.48072393 200.33430812 78.125 201 C83.74666511 202.17873623 89.2517228 202.10375615 94.96044922 202.03125 C104.06515982 201.93836172 113.15091241 202.21462038 122.25 202.5 C123.02867432 202.52409943 123.80734863 202.54819885 124.60961914 202.57302856 C129.07321052 202.71141214 133.53665461 202.85386469 138 203 C137.67 203.99 137.34 204.98 137 206 C129.53171725 205.91497131 122.06361768 205.81985733 114.59562397 205.71247292 C111.12653271 205.66289386 107.65746639 205.61656669 104.18823242 205.578125 C100.18390271 205.53360235 96.17990835 205.47411996 92.17578125 205.4140625 C90.95232498 205.40251129 89.72886871 205.39096008 88.46833801 205.37905884 C62.13785545 204.93577829 38.62225029 196.3365503 19.97265625 177.32006836 C10.38620057 167.21786409 3.09434498 155.26340672 -4.546875 143.68359375 C-8.55787888 137.62876923 -12.65884467 131.63785576 -16.76673889 125.64848328 C-22.82989558 116.80225956 -28.82853689 107.91289196 -34.8215332 99.01904297 C-36.69597937 96.23741685 -38.57155035 93.4565517 -40.44726562 90.67578125 C-47.32860075 80.47061542 -54.18389171 70.24883294 -61 60 C-62.15339723 58.26936554 -63.30701268 56.53887647 -64.4609375 54.80859375 C-70.3359375 45.99609375 -70.3359375 45.99609375 -71.70214844 43.92138672 C-72.52836716 42.69822243 -73.3833766 41.4936785 -74.27441406 40.31689453 C-76.04255875 37.94042929 -77.00148165 36.47931504 -76.9921875 33.47265625 C-75.76045855 30.40303252 -74.12502908 28.07123793 -72.125 25.4375 C-71.42632813 24.50808594 -70.72765625 23.57867187 -70.0078125 22.62109375 C-69.34523438 21.75613281 -68.68265625 20.89117187 -68 20 C-67.46117187 19.22785156 -66.92234375 18.45570313 -66.3671875 17.66015625 C-65.91601562 17.11230469 -65.46484375 16.56445312 -65 16 C-64.34 16 -63.68 16 -63 16 C-63 15.34 -63 14.68 -63 14 C-45.75515124 -1.31872254 -22.29040288 -7.72691569 0 0 Z " fill="#C80013" transform="translate(726,474)"/>
<path d="M0 0 C-2 2 -2 2 -4.57519531 2.16357422 C-5.64866211 2.1276416 -6.72212891 2.09170898 -7.828125 2.0546875 C-9.0145459 2.02737549 -10.2009668 2.00006348 -11.42333984 1.97192383 C-12.6861377 1.93993896 -13.94893555 1.9079541 -15.25 1.875 C-33.00052561 1.63597724 -45.860737 5.30780873 -60.3046875 15.8125 C-62 17 -62 17 -64.625 18.5 C-69.65022122 21.67382393 -73.54237262 26.58282665 -77.5625 30.9375 C-78.03107422 31.43701172 -78.49964844 31.93652344 -78.98242188 32.45117188 C-84.52791901 38.03126227 -84.52791901 38.03126227 -87 45 C-86.34 45 -85.68 45 -85 45 C-84.505 44.01 -84.505 44.01 -84 43 C-79.48921881 48.70895744 -75.1375286 54.51105996 -70.89453125 60.421875 C-62.08127803 72.41516805 -50.35405958 80.58680421 -37 87 C-40 88 -40 88 -42.78515625 86.84765625 C-58.66672336 78.19702911 -75.53797286 65.55310257 -82 48 C-85.50258708 48.60306489 -85.92393128 48.90507054 -88.31494141 51.88891602 C-89.1725074 53.16927279 -90.01720679 54.45830467 -90.8515625 55.75390625 C-91.31049896 56.44701401 -91.76943542 57.14012177 -92.24227905 57.85423279 C-93.71412035 60.08334202 -95.1694498 62.3227281 -96.625 64.5625 C-97.58101292 66.01304146 -98.5380348 67.46291847 -99.49609375 68.91210938 C-104.57396199 76.61803426 -109.52012658 84.39880353 -114.38809204 92.23864746 C-118.45659028 98.77269605 -122.70790779 105.17327441 -127 111.5625 C-127.78848911 112.74015483 -128.57673471 113.91797272 -129.36474609 115.09594727 C-130.89403844 117.38146549 -132.42445586 119.66622212 -133.95605469 121.95019531 C-136.51922584 125.77474549 -139.07316813 129.60537997 -141.625 133.4375 C-142.38927917 134.58336251 -143.15359993 135.72919729 -143.91796875 136.875 C-145.27715733 138.91505791 -146.63403499 140.9566579 -147.98828125 143 C-155.2491248 153.94219309 -162.52845542 164.88653175 -170.4375 175.375 C-171.21996094 176.41398438 -172.00242187 177.45296875 -172.80859375 178.5234375 C-174.8358399 180.81447861 -176.17711679 181.93257719 -179 183 C-178.0409375 181.6078125 -178.0409375 181.6078125 -177.0625 180.1875 C-174.91377907 177.15780057 -174.91377907 177.15780057 -174 174 C-172.34190214 172.32480835 -170.67384532 170.65945696 -169 169 C-167.40123801 166.93743334 -165.87005397 164.88373268 -164.375 162.75 C-163.94606445 162.14357666 -163.51712891 161.53715332 -163.07519531 160.91235352 C-159.37611009 155.63492943 -155.86728589 150.24136324 -152.39038086 144.81591797 C-148.63582292 138.95951365 -144.80194775 133.15941761 -140.9375 127.375 C-140.34493408 126.48707764 -139.75236816 125.59915527 -139.1418457 124.68432617 C-136.45795031 120.66608566 -133.76770523 116.6523642 -131.0625 112.6484375 C-126.74968154 106.25146769 -122.53759476 99.87038141 -119 93 C-119.99 93.66 -120.98 94.32 -122 95 C-122.66 95 -123.32 95 -124 95 C-124.33 95.66 -124.66 96.32 -125 97 C-125.99 96.505 -125.99 96.505 -127 96 C-115.28020137 77.51716345 -103.52641744 59.22813926 -90 42 C-89.07767578 40.78570312 -89.07767578 40.78570312 -88.13671875 39.546875 C-74.34549995 21.41221487 -55.67603506 3.32444243 -32.21044922 -0.74804688 C-21.84477278 -1.92955539 -10.23976331 -2.15666248 0 0 Z " fill="#002CB9" transform="translate(442,464)"/>
<path d="M0 0 C2.40013269 1.88016674 4.67006267 3.83643168 6.92578125 5.88671875 C7.75078125 6.59441406 8.57578125 7.30210937 9.42578125 8.03125 C22.62466349 19.51991122 37.33729059 35.85512817 42.92578125 52.88671875 C42.59578125 53.54671875 42.26578125 54.20671875 41.92578125 54.88671875 C41.19875 54.48839844 40.47171875 54.09007812 39.72265625 53.6796875 C29.64979965 48.37206691 20.3677172 45.31462195 8.92578125 45.88671875 C8.92578125 45.22671875 8.92578125 44.56671875 8.92578125 43.88671875 C-10.29157396 46.0752787 -26.98021091 49.67496171 -41.3828125 63.56640625 C-43.07421875 64.88671875 -43.07421875 64.88671875 -46.07421875 64.88671875 C-44.92225277 61.4308208 -43.84743735 60.21022622 -41.07421875 57.88671875 C-37.82421875 56.63671875 -37.82421875 56.63671875 -35.07421875 55.88671875 C-35.07421875 55.22671875 -35.07421875 54.56671875 -35.07421875 53.88671875 C-31.52041664 50.33291664 -27.95740653 49.02617886 -23.2734375 47.609375 C-20.8588187 46.88145708 -20.8588187 46.88145708 -17.94921875 45.26171875 C-14.5971157 43.65853903 -11.7600161 43.27469742 -8.07421875 42.88671875 C-6.53507812 42.63728516 -6.53507812 42.63728516 -4.96484375 42.3828125 C5.50621745 41.04764707 17.24060108 40.08016895 26.87109375 44.9296875 C30.15611603 46.45978343 33.33787763 46.62094811 36.92578125 46.88671875 C36.59578125 45.23671875 36.26578125 43.58671875 35.92578125 41.88671875 C35.26578125 41.88671875 34.60578125 41.88671875 33.92578125 41.88671875 C32.1275168 39.62857027 30.45110115 37.37394136 28.80078125 35.01171875 C28.33285156 34.36074219 27.86492187 33.70976562 27.3828125 33.0390625 C23.92578125 28.15084047 23.92578125 28.15084047 23.92578125 25.88671875 C22.93578125 25.88671875 21.94578125 25.88671875 20.92578125 25.88671875 C20.65765625 25.12359375 20.38953125 24.36046875 20.11328125 23.57421875 C18.96777158 20.98174949 17.92866603 19.79856331 15.92578125 17.88671875 C15.92578125 17.22671875 15.92578125 16.56671875 15.92578125 15.88671875 C15.22453125 15.70109375 14.52328125 15.51546875 13.80078125 15.32421875 C10.9110966 13.87937642 9.95035834 12.90310936 7.98828125 10.44921875 C5.35608575 7.16752046 2.87603106 5.48562939 -1.07421875 3.88671875 C-1.07421875 3.22671875 -1.07421875 2.56671875 -1.07421875 1.88671875 C-2.06421875 1.54640625 -2.06421875 1.54640625 -3.07421875 1.19921875 C-5.58949568 0.09878509 -7.55720165 -1.04548189 -9.82421875 -2.55078125 C-13.4968093 -4.92922084 -17.08856714 -6.26309049 -21.2890625 -7.4375 C-23.07421875 -8.11328125 -23.07421875 -8.11328125 -24.07421875 -10.11328125 C-26.40137875 -10.48728911 -28.73539737 -10.82092858 -31.07421875 -11.11328125 C-31.56921875 -11.60828125 -31.56921875 -11.60828125 -32.07421875 -12.11328125 C-47.52911683 -15.04002625 -64.11585895 -14.59246115 -78.28515625 -7.5078125 C-81.07421875 -6.11328125 -81.07421875 -6.11328125 -83.13671875 -5.61328125 C-85.83201068 -4.91772204 -87.7260489 -3.62654626 -90.07421875 -2.11328125 C-90.7703125 -1.66597656 -91.46640625 -1.21867187 -92.18359375 -0.7578125 C-98.81110322 3.56786062 -104.37843899 7.9122051 -109.41796875 14.05078125 C-111.8726136 16.77173191 -114.68017623 19.02033261 -117.53515625 21.30859375 C-119.42331424 22.87728162 -119.42331424 22.87728162 -119.07421875 25.88671875 C-120.06421875 25.88671875 -121.05421875 25.88671875 -122.07421875 25.88671875 C-122.4609375 26.95986328 -122.4609375 26.95986328 -122.85546875 28.0546875 C-124.1480664 31.05831986 -125.70198965 33.52177247 -127.57421875 36.19921875 C-128.18265625 37.08222656 -128.79109375 37.96523438 -129.41796875 38.875 C-129.96453125 39.53886719 -130.51109375 40.20273437 -131.07421875 40.88671875 C-131.73421875 40.88671875 -132.39421875 40.88671875 -133.07421875 40.88671875 C-133.32171875 41.75296875 -133.56921875 42.61921875 -133.82421875 43.51171875 C-135.64259361 48.42133086 -137.68764853 51.9623386 -142.07421875 54.88671875 C-140.7568808 49.06784882 -138.47656008 45.01694191 -135.01171875 40.19921875 C-134.52074707 39.50296387 -134.02977539 38.80670898 -133.52392578 38.08935547 C-132.05253201 36.01301833 -130.56602235 33.94842485 -129.07421875 31.88671875 C-128.66155762 31.31131348 -128.24889648 30.7359082 -127.82373047 30.14306641 C-112.23624778 8.47810625 -90.67988669 -11.09749234 -63.47021484 -15.79980469 C-39.89956257 -18.8836357 -19.46858795 -13.38310811 0 0 Z " fill="#FA4908" transform="translate(703.07421875,414.11328125)"/>
<path d="M0 0 C0.66 0 1.32 0 2 0 C1.34206835 1.67013418 0.67276716 3.3357865 0 5 C-0.391875 6.02351562 -0.78375 7.04703125 -1.1875 8.1015625 C-3.25121167 12.89427372 -6.21275721 17.0472563 -9.1875 21.3125 C-9.77047852 22.15482178 -10.35345703 22.99714355 -10.95410156 23.86499023 C-15.07504884 29.77613826 -19.30971798 35.52473354 -24 41 C-24.65742187 41.80179688 -25.31484375 42.60359375 -25.9921875 43.4296875 C-39.58118173 59.40795544 -58.56876587 71.16102349 -79 76 C-79.78632812 76.21011719 -80.57265625 76.42023438 -81.3828125 76.63671875 C-108.51278011 83.12032118 -139.9083184 77.03421413 -163.76855469 62.95654297 C-173.2808566 56.96621799 -183.18287994 50.00552581 -190 41 C-186.41379775 42.65517027 -183.18469471 44.66455721 -180 47 C-179.67 47.99 -179.34 48.98 -179 50 C-178.236875 50.103125 -177.47375 50.20625 -176.6875 50.3125 C-173.81583516 51.04711194 -172.76957906 51.6716065 -171 54 C-171 54.66 -171 55.32 -171 56 C-170.278125 56.0825 -169.55625 56.165 -168.8125 56.25 C-165.43728588 57.1500571 -163.70630365 58.83495708 -161 61 C-158.31492671 61.78946609 -158.31492671 61.78946609 -156 62 C-156 62.66 -156 63.32 -156 64 C-152.7 64.99 -149.4 65.98 -146 67 C-146 67.66 -146 68.32 -146 69 C-145.01 68.67 -144.02 68.34 -143 68 C-140.50390625 68.70703125 -140.50390625 68.70703125 -137.5625 69.8125 C-128.26186087 73.06604083 -118.7797324 74.17781011 -109 75 C-109 75.66 -109 76.32 -109 77 C-108.43796875 76.82597656 -107.8759375 76.65195312 -107.296875 76.47265625 C-104.75443245 75.94946654 -102.81547663 76.09795162 -100.25 76.4375 C-99.05117188 76.59025391 -99.05117188 76.59025391 -97.828125 76.74609375 C-97.22484375 76.82988281 -96.6215625 76.91367187 -96 77 C-96 76.34 -96 75.68 -96 75 C-93.69 75.33 -91.38 75.66 -89 76 C-89 75.34 -89 74.68 -89 74 C-88.1646875 74.04253906 -87.329375 74.08507812 -86.46875 74.12890625 C-82.57009757 73.9840239 -79.18351974 73.12097284 -75.5 71.9375 C-74.80874023 71.71779541 -74.11748047 71.49809082 -73.40527344 71.27172852 C-64.48992424 68.31656085 -55.66788252 64.73851686 -49 58 C-45.25 56.75 -45.25 56.75 -42 56 C-42 55.01 -42 54.02 -42 53 C-40.36209288 51.95355934 -38.68991979 50.9601817 -37 50 C-35.62437146 48.71034824 -34.29233607 47.37310707 -33 46 C-28.43269231 41.20432692 -28.43269231 41.20432692 -25.75 39.9375 C-23.77905978 39.1346633 -23.77905978 39.1346633 -23.25 36.875 C-23.1675 36.25625 -23.085 35.6375 -23 35 C-22.34 35 -21.68 35 -21 35 C-20.896875 34.443125 -20.79375 33.88625 -20.6875 33.3125 C-19.86798993 30.55596614 -18.50303883 28.4424381 -17 26 C-16.67 25.01 -16.34 24.02 -16 23 C-13.9375 22.3125 -13.9375 22.3125 -12 22 C-12.103125 21.278125 -12.20625 20.55625 -12.3125 19.8125 C-11.87340412 15.86063712 -9.88369891 14.60906092 -7 12 C-6.34 11.01 -5.68 10.02 -5 9 C-4.34 9 -3.68 9 -3 9 C-2.87625 8.2575 -2.7525 7.515 -2.625 6.75 C-2.04513299 4.19858515 -1.26291261 2.2732427 0 0 Z " fill="#640B70" transform="translate(608,547)"/>
<path d="M0 0 C0.33 0.99 0.66 1.98 1 3 C-0.3641116 5.24294271 -1.7455274 7.2825614 -3.3125 9.375 C-6.06067377 13.09586587 -8.50033623 16.5755776 -10 21 C-10.66 21 -11.32 21 -12 21 C-12.37125 22.051875 -12.37125 22.051875 -12.75 23.125 C-14.16039511 26.36890874 -16.02649053 29.07156659 -18 32 C-18.33 32.99 -18.66 33.98 -19 35 C-19.66 35 -20.32 35 -21 35 C-21.33 36.32 -21.66 37.64 -22 39 C-22.66 39 -23.32 39 -24 39 C-24.32677734 39.9590625 -24.32677734 39.9590625 -24.66015625 40.9375 C-26.52828636 45.20751168 -28.97751462 49.04862844 -31.4375 53 C-32.41547475 54.58326529 -33.39334228 56.16659681 -34.37109375 57.75 C-34.8307251 58.49137207 -35.29035645 59.23274414 -35.76391602 59.99658203 C-36.74812616 61.59176837 -37.71664625 63.19663258 -38.6796875 64.8046875 C-42.14402256 70.56491325 -46.00442324 76.03621364 -50 81.4375 C-53.04610899 85.59494932 -55.77537838 89.82074387 -58.37109375 94.26953125 C-60.70251767 98.17760157 -63.18794634 101.98173016 -65.66796875 105.79663086 C-68.53023729 110.21720504 -71.21990602 114.71732634 -73.80859375 119.3046875 C-74.20175781 119.86414063 -74.59492188 120.42359375 -75 121 C-75.66 121 -76.32 121 -77 121 C-77.25910156 121.7115625 -77.51820313 122.423125 -77.78515625 123.15625 C-79.07625794 126.17850734 -80.64147857 128.74996289 -82.4375 131.5 C-84.99446097 135.43175545 -84.99446097 135.43175545 -87.4453125 139.4296875 C-89.34151757 142.56461949 -91.38718308 145.59009065 -93.4375 148.625 C-99.02561729 156.94910807 -104.36174397 165.42649073 -109.69140625 173.91748047 C-113.98410826 180.74896333 -118.34268155 187.53839279 -122.70703125 194.32421875 C-123.12134399 194.96854858 -123.53565674 195.61287842 -123.96252441 196.2767334 C-124.97494368 197.85120229 -125.98746168 199.42560768 -127 201 C-119.32270425 200.93819414 -111.64569451 200.86067702 -103.96875763 200.76428509 C-100.40221 200.71997179 -96.83576644 200.68063597 -93.26904297 200.65356445 C-89.14785365 200.62143164 -85.02708393 200.57479385 -80.90625 200.51171875 C-80.24070099 200.50155605 -79.57515198 200.49139336 -78.88943481 200.4809227 C-69.85238259 200.32039693 -61.35670147 199.63676959 -52.58789062 197.43676758 C-51.30688477 197.22056763 -51.30688477 197.22056763 -50 197 C-49.34 197.66 -48.68 198.32 -48 199 C-73.74935183 206.85824749 -103.48987836 202.73988758 -130 202 C-128.67579054 198.5764856 -127.3132598 195.82534032 -125.125 192.875 C-121.64004635 188.00907924 -118.42839085 183.00586836 -115.25 177.9375 C-111.3505365 171.72469212 -107.42944854 165.52886573 -103.4375 159.375 C-102.98431396 158.67624756 -102.53112793 157.97749512 -102.06420898 157.25756836 C-100.71013774 155.17127952 -99.35510637 153.0856166 -98 151 C-96.26951398 148.33418694 -94.54050769 145.66742015 -92.8125 143 C-92.36648437 142.31196289 -91.92046875 141.62392578 -91.4609375 140.91503906 C-88.75092147 136.72768791 -86.05991426 132.52878939 -83.3828125 128.3203125 C-75.89837861 116.56295753 -68.29688035 104.90501484 -60.52755737 93.33514404 C-55.39924892 85.69069923 -50.43830774 77.97385077 -45.69799805 70.08251953 C-42.14997968 64.18771001 -38.37259547 58.47333394 -34.52734375 52.76953125 C-31.82271869 48.7532528 -29.18800716 44.69330749 -26.5625 40.625 C-26.10560791 39.91738525 -25.64871582 39.20977051 -25.17797852 38.48071289 C-23.78447633 36.3210172 -22.3920424 34.16063684 -21 32 C-14.08862128 21.27261162 -7.11064436 10.59655677 0 0 Z " fill="#0345D9" transform="translate(271,476)"/>
<path d="M0 0 C0 3.68910346 -1.14034367 5.4464316 -2.875 8.6875 C-8.68197975 20.17819814 -10.13149567 33.39202625 -6.6875 45.99609375 C-4.22083701 53.18585577 -0.91017923 60.13397255 4 66 C4.99 66.33 5.98 66.66 7 67 C7 67.99 7 68.98 7 70 C8.485 70.495 8.485 70.495 10 71 C10 71.66 10 72.32 10 73 C10.886875 73.268125 11.77375 73.53625 12.6875 73.8125 C16 75 16 75 18.26953125 76.46484375 C28.09716458 81.99025133 41.43818218 82.05790164 52.04296875 79.171875 C58.67831665 76.91531944 63.92366275 73.78441181 69.25 69.25 C72 67 72 67 74 67 C74.37125 66.2265625 74.37125 66.2265625 74.75 65.4375 C76 63 76 63 77.8125 60.125 C85.56133624 46.11861298 85.62782238 33.67431003 85 18 C89.03248877 22.03248877 87.98316026 30.47268023 88 36 C87.62215021 48.13317654 82.56230373 60.65239954 74.1875 69.5625 C63.64784878 78.88524433 52.12806039 83.98106158 38 84 C23.51367437 83.01636061 11.10747092 77.85585285 1.22265625 67.05859375 C-7.76081422 55.74353553 -12.34529067 41.46187474 -11 27 C-9.85178206 17.14446271 -6.48768211 7.57816485 0 0 Z " fill="#0356DF" transform="translate(342,293)"/>
<path d="M0 0 C0 0.33 0 0.66 0 1 C-0.87100342 0.97905273 -1.74200684 0.95810547 -2.6394043 0.93652344 C-5.93655415 0.86749148 -9.23291338 0.81779311 -12.53051758 0.78027344 C-13.945356 0.76041606 -15.36011531 0.73332034 -16.7746582 0.69824219 C-29.00141583 0.40309859 -38.9986053 2.44340619 -50 8 C-50.680625 8.165 -51.36125 8.33 -52.0625 8.5 C-54.75779193 9.19555921 -56.65183015 10.48673499 -59 12 C-59.69609375 12.44730469 -60.3921875 12.89460938 -61.109375 13.35546875 C-67.73688447 17.68114187 -73.30422024 22.02548635 -78.34375 28.1640625 C-80.79839485 30.88501316 -83.60595748 33.13361386 -86.4609375 35.421875 C-88.34909549 36.99056287 -88.34909549 36.99056287 -88 40 C-88.99 40 -89.98 40 -91 40 C-91.38671875 41.07314453 -91.38671875 41.07314453 -91.78125 42.16796875 C-93.07384765 45.17160111 -94.6277709 47.63505372 -96.5 50.3125 C-97.1084375 51.19550781 -97.716875 52.07851563 -98.34375 52.98828125 C-98.8903125 53.65214844 -99.436875 54.31601562 -100 55 C-100.66 55 -101.32 55 -102 55 C-102.2475 55.86625 -102.495 56.7325 -102.75 57.625 C-104.56837486 62.53461211 -106.61342978 66.07561985 -111 69 C-109.68266205 63.18113007 -107.40234133 59.13022316 -103.9375 54.3125 C-103.44652832 53.61624512 -102.95555664 52.91999023 -102.44970703 52.20263672 C-100.97831326 50.12629958 -99.4918036 48.0617061 -98 46 C-97.58733887 45.42459473 -97.17467773 44.84918945 -96.74951172 44.25634766 C-81.17553728 22.61016255 -59.62100782 3.02421836 -32.43554688 -1.6953125 C-21.89384687 -3.01408171 -10.12894271 -3.51211606 0 0 Z " fill="#FA3709" transform="translate(672,400)"/>
<path d="M0 0 C0 6.10764308 -4.54471953 13.06388505 -8 18 C-8.66 18 -9.32 18 -10 18 C-10.4021875 18.804375 -10.4021875 18.804375 -10.8125 19.625 C-11.204375 20.40875 -11.59625 21.1925 -12 22 C-12.41507813 22.90234375 -12.83015625 23.8046875 -13.2578125 24.734375 C-15.20079678 28.3763814 -17.48800022 31.41718077 -20.0625 34.625 C-23.99281722 39.51532538 -23.99281722 39.51532538 -27 45 C-28.61999118 47.99698368 -30.41210067 50.5313165 -32.6640625 53.06640625 C-36.41159209 57.39792964 -39.76015572 61.99381647 -43.125 66.625 C-53.3033188 80.58507207 -53.3033188 80.58507207 -59 85 C-59.721875 85.7425 -60.44375 86.485 -61.1875 87.25 C-63 89 -63 89 -65 89 C-65 89.66 -65 90.32 -65 91 C-66.64556566 92.03435556 -68.3170608 93.02763513 -70 94 C-70.845625 94.70125 -71.69125 95.4025 -72.5625 96.125 C-74.85129043 97.88560802 -76.19281575 98.58412085 -79 99 C-79 98.01 -79 97.02 -79 96 C-76.6484375 94.23046875 -76.6484375 94.23046875 -73.375 92.1875 C-59.87758235 83.27860844 -49.96844883 71.00341145 -40.50976562 58.06103516 C-39.10005413 56.13658748 -37.67154187 54.22820637 -36.234375 52.32421875 C-29.67261438 43.58038294 -23.61912057 34.52247666 -17.58984375 25.40625 C-14.00306276 19.98823498 -10.3568556 14.61235351 -6.6875 9.25 C-6.1301416 8.43370117 -5.5727832 7.61740234 -4.99853516 6.77636719 C-4.48726074 6.03032227 -3.97598633 5.28427734 -3.44921875 4.515625 C-2.99893311 3.85852539 -2.54864746 3.20142578 -2.0847168 2.52441406 C-1 1 -1 1 0 0 Z M-82 99 C-81.01 99.33 -80.02 99.66 -79 100 C-79.99 100.33 -80.98 100.66 -82 101 C-82 100.34 -82 99.68 -82 99 Z " fill="#F01E12" transform="translate(562,464)"/>
<path d="M0 0 C3.61856367 5.4278455 2.26270585 12.13079015 1.3125 18.375 C-1.04098506 29.80391034 -5.64924932 37.89571245 -14 46 C-14.86625 46.87978516 -14.86625 46.87978516 -15.75 47.77734375 C-24.86893376 56.39210569 -37.28061746 59.54882023 -49.50390625 59.30859375 C-64.57452525 57.97833799 -77.10367337 51.27315533 -86.86328125 39.84765625 C-91.03973382 34.28159789 -94.37705114 29.11369821 -94 22 C-92.08038705 24.87941942 -90.75363335 27.67359312 -89.3125 30.8125 C-86.98331311 35.52768321 -84.83939732 38.6542732 -80.6328125 41.77734375 C-79 43 -79 43 -76.8125 45.5 C-69.98543629 51.56850107 -62.06261027 54.69791299 -53 55 C-53 55.66 -53 56.32 -53 57 C-34.60587494 55.65569209 -34.60587494 55.65569209 -19 47 C-18.21625 46.401875 -17.4325 45.80375 -16.625 45.1875 C-12.09297255 41.41081046 -9.47599106 37.32338079 -7 32 C-6.34 32 -5.68 32 -5 32 C-4.8659375 31.26265625 -4.731875 30.5253125 -4.59375 29.765625 C-4.06539113 27.30458501 -3.34962998 25.11197134 -2.5 22.75 C-0.20374822 15.37959184 -0.25765744 7.6586454 0 0 Z " fill="#DD0C11" transform="translate(695,318)"/>
<path d="M0 0 C0.495 1.485 0.495 1.485 1 3 C-0.43983629 5.5833768 -1.93024931 7.96071316 -3.58984375 10.3984375 C-4.08580551 11.14499603 -4.58176727 11.89155457 -5.09275818 12.66073608 C-6.16487199 14.27398163 -7.24111478 15.88448906 -8.32098389 17.49255371 C-10.55190554 20.82421692 -12.7479226 24.17823346 -14.94497681 27.5322876 C-17.22919698 31.01746305 -19.52278905 34.49642928 -21.81616211 37.97558594 C-23.56513697 40.62900061 -25.31291946 43.28319771 -27.06054688 45.9375 C-32.98176134 54.9271191 -38.91996647 63.90487331 -44.90039062 72.85522461 C-46.91894002 75.87858912 -48.9291855 78.90733088 -50.9375 81.9375 C-57.58107232 91.88280745 -64.23439368 101.82270185 -71.4375 111.375 C-72.61119141 112.93347656 -72.61119141 112.93347656 -73.80859375 114.5234375 C-75.8358399 116.81447861 -77.17711679 117.93257719 -80 119 C-79.360625 118.071875 -78.72125 117.14375 -78.0625 116.1875 C-75.91377907 113.15780057 -75.91377907 113.15780057 -75 110 C-73.34190214 108.32480835 -71.67384532 106.65945696 -70 105 C-68.40123801 102.93743334 -66.87005397 100.88373268 -65.375 98.75 C-64.94606445 98.14357666 -64.51712891 97.53715332 -64.07519531 96.91235352 C-60.37611009 91.63492943 -56.86728589 86.24136324 -53.39038086 80.81591797 C-49.63582605 74.95951853 -45.80218524 69.15925506 -41.9375 63.375 C-41.34348389 62.48562744 -40.74946777 61.59625488 -40.13745117 60.67993164 C-37.93225362 57.3804987 -35.72498103 54.08246015 -33.51660156 50.78515625 C-28.84177577 43.80425902 -24.20937573 36.80585867 -19.7265625 29.69921875 C-17.14662376 25.66587561 -14.47234964 21.69696687 -11.796875 17.7265625 C-10.65998442 16.00145462 -9.55501454 14.25450487 -8.49609375 12.48046875 C-6.87675262 9.79566034 -5.12174471 7.24775194 -3.3125 4.6875 C-2.68988281 3.80449219 -2.06726563 2.92148437 -1.42578125 2.01171875 C-0.72001953 1.01591797 -0.72001953 1.01591797 0 0 Z " fill="#0728A4" transform="translate(343,528)"/>
<path d="M0 0 C2.95845268 1.37050815 5.38501339 2.97822843 7.9375 5 C10.87069546 7.2462389 13.48265458 8.794053 17 10 C17.99 10.66 18.98 11.32 20 12 C21.98634306 12.55176196 23.9889403 13.04652575 26 13.5 C29.65030117 14.32310713 31.85760733 14.90507156 35 17 C37.63103935 17.38765641 37.63103935 17.38765641 40.5625 17.5 C44.34312224 17.7472464 47.83245042 18.12763442 51.5 19.0625 C56.98060091 20.22712769 62.39278842 20.10163287 67.96191406 20.03149414 C77.06611278 19.93773052 86.15142746 20.21463654 95.25 20.5 C96.02867432 20.52409943 96.80734863 20.54819885 97.60961914 20.57302856 C102.07321052 20.71141214 106.53665461 20.85386469 111 21 C110.505 22.485 110.505 22.485 110 24 C102.53171725 23.91497131 95.06361768 23.81985733 87.59562397 23.71247292 C84.12653271 23.66289386 80.65746639 23.61656669 77.18823242 23.578125 C73.18390271 23.53360235 69.17990835 23.47411996 65.17578125 23.4140625 C63.95232498 23.40251129 62.72886871 23.39096008 61.46833801 23.37905884 C39.17079493 23.00367388 17.04770802 17.13418977 0 2 C0 1.34 0 0.68 0 0 Z " fill="#C30E14" transform="translate(753,656)"/>
<path d="M0 0 C14.21462569 2.67099878 27.32833548 10.43612073 38 20 C38.82757812 20.70898438 39.65515625 21.41796875 40.5078125 22.1484375 C52.20616467 32.34424903 60.80160034 43.9209477 69 57 C69.42200684 57.67240723 69.84401367 58.34481445 70.27880859 59.03759766 C71.25333916 60.652904 72.13677445 62.32257159 73 64 C72.67 64.66 72.34 65.32 72 66 C70.02 65.01 68.04 64.02 66 63 C66.495 62.01 66.495 62.01 67 61 C67 60.01 67 59.02 67 58 C67 57.34 67 56.68 67 56 C66.34 56 65.68 56 65 56 C63.20173555 53.74185152 61.5253199 51.48722261 59.875 49.125 C59.40707031 48.47402344 58.93914063 47.82304687 58.45703125 47.15234375 C55 42.26412172 55 42.26412172 55 40 C54.01 40 53.02 40 52 40 C51.731875 39.236875 51.46375 38.47375 51.1875 37.6875 C50.04199033 35.09503074 49.00288478 33.91184456 47 32 C47 31.34 47 30.68 47 30 C46.29875 29.814375 45.5975 29.62875 44.875 29.4375 C41.98531535 27.99265767 41.02457709 27.01639061 39.0625 24.5625 C36.4303045 21.28080171 33.95024981 19.59891064 30 18 C30 17.34 30 16.68 30 16 C29.34 15.773125 28.68 15.54625 28 15.3125 C25.48472307 14.21206634 23.5170171 13.06779936 21.25 11.5625 C17.57740945 9.18406041 13.98565161 7.85019076 9.78515625 6.67578125 C8 6 8 6 7 4 C4.67843403 3.59270772 2.3431213 3.25561323 0 3 C0 2.01 0 1.02 0 0 Z " fill="#FA5005" transform="translate(672,400)"/>
<path d="M0 0 C2.37405874 2.19911895 3.99526116 4.42776777 5.63671875 7.2109375 C6.13236328 8.04496094 6.62800781 8.87898437 7.13867188 9.73828125 C7.64978516 10.60839844 8.16089844 11.47851562 8.6875 12.375 C13.37622379 20.30220011 18.15906152 28.16477781 23 36 C24.39229996 38.26018702 25.78422662 40.52060403 27.17578125 42.78125 C27.85833984 43.88984375 28.54089844 44.9984375 29.24414062 46.140625 C29.92669922 47.24921875 30.60925781 48.3578125 31.3125 49.5 C31.6638501 50.07041016 32.0152002 50.64082031 32.37719727 51.22851562 C33.41449039 52.91259714 34.45139068 54.5969206 35.48828125 56.28125 C36.09196533 57.26158203 36.69564941 58.24191406 37.31762695 59.25195312 C38.42896358 61.06724917 39.52172397 62.89406442 40.59448242 64.73242188 C41.93394473 67.08626971 41.93394473 67.08626971 44 69 C44.91327769 70.68817998 45.78436931 72.39949491 46.625 74.125 C47.07101562 75.03507813 47.51703125 75.94515625 47.9765625 76.8828125 C48.31429687 77.58148437 48.65203125 78.28015625 49 79 C48.01 79 47.02 79 46 79 C44.67578125 77.26953125 44.67578125 77.26953125 43.3125 74.8125 C42.53519531 73.45125 42.53519531 73.45125 41.7421875 72.0625 C41.16726563 71.051875 40.59234375 70.04125 40 69 C34.91723833 60.4540796 34.91723833 60.4540796 29.3125 52.25 C22 41.97297297 22 41.97297297 22 38 C21.34 38 20.68 38 20 38 C19.87625 37.195625 19.7525 36.39125 19.625 35.5625 C19.41875 34.716875 19.2125 33.87125 19 33 C18.34 32.67 17.68 32.34 17 32 C15.92443998 30.32558246 14.9151441 28.60841152 13.9375 26.875 C13.01710938 25.26238281 13.01710938 25.26238281 12.078125 23.6171875 C11.74619141 23.03549805 11.41425781 22.45380859 11.07226562 21.85449219 C8.78197148 17.89340969 6.39444021 13.98941746 4.02124023 10.07763672 C2.22591767 7.10357504 0.48487145 4.14258509 -1 1 C-0.67 0.67 -0.34 0.34 0 0 Z " fill="#FA4506" transform="translate(767,517)"/>
<path d="M0 0 C7.01865788 6.38059807 11.90887211 14.55961492 16.5625 22.75 C17.80262556 25.11504422 17.80262556 25.11504422 20 26 C20.78289949 27.45144288 21.50191488 28.93763631 22.1875 30.4375 C24.49806612 35.23742604 27.26999831 39.41097335 30.44921875 43.67578125 C32.03005788 46.04504897 33.03936022 48.32629816 34 51 C34.66 51 35.32 51 36 51 C37.69033272 53.49211887 39.26854165 55.98165651 40.8125 58.5625 C41.67087192 59.98186537 42.53153889 61.39984541 43.39453125 62.81640625 C43.81814941 63.51523926 44.24176758 64.21407227 44.67822266 64.93408203 C45.9908247 66.98565914 47.41221276 68.90254777 48.88671875 70.83984375 C49.58410156 71.88269531 50.28148437 72.92554688 51 74 C50.505 75.485 50.505 75.485 50 77 C42.77923563 67.36200136 36.15286214 57.34581433 29.5 47.3125 C27.76608382 44.70099215 26.03170916 42.08978935 24.29721069 39.47866821 C23.15045328 37.75228022 22.0039869 36.02569886 20.8578186 34.29891968 C17.5080274 29.25573365 14.13748281 24.22748853 10.7421875 19.21484375 C9.98359339 18.09147813 9.22512403 16.96802827 8.46679688 15.84448242 C7.10631618 13.83186654 5.74069756 11.82271098 4.36914062 9.81762695 C3.78068359 8.94452881 3.19222656 8.07143066 2.5859375 7.171875 C2.0811084 6.4303418 1.5762793 5.68880859 1.05615234 4.92480469 C0 3 0 3 0 0 Z " fill="#A3050F" transform="translate(653,513)"/>
<path d="M0 0 C0.94101562 0.49371094 1.88203125 0.98742187 2.8515625 1.49609375 C4.1091536 2.14365932 5.36697864 2.79077071 6.625 3.4375 C7.55119141 3.92573242 7.55119141 3.92573242 8.49609375 4.42382812 C12.33285611 6.38259628 15.71743908 7.53221258 20 8 C20 8.66 20 9.32 20 10 C27.26 10.66 34.52 11.32 42 12 C42 12.33 42 12.66 42 13 C36.61972975 14.19088986 31.54708616 15.2919519 26 15 C26 14.34 26 13.68 26 13 C24.14375 12.814375 24.14375 12.814375 22.25 12.625 C19.07929264 12.23914672 16.80795147 11.55997304 14 10 C13.01 10 12.02 10 11 10 C11.48836698 14.39530281 12.82976452 16.0219 16 19 C16.66666667 20.33333333 17.33333333 21.66666667 18 23 C18.99 23.66 19.98 24.32 21 25 C21.33 25.99 21.66 26.98 22 28 C17.27192083 27.16651848 15.43579988 24.24012584 12.6875 20.5625 C12.20692139 19.93303467 11.72634277 19.30356934 11.23120117 18.6550293 C9.80765763 16.7794612 8.40135443 14.89218416 7 13 C5.87464844 11.49179687 5.87464844 11.49179687 4.7265625 9.953125 C0 3.43239796 0 3.43239796 0 0 Z " fill="#DC1035" transform="translate(398,560)"/>
<path d="M0 0 C-1.02738281 0.42410156 -2.05476563 0.84820312 -3.11328125 1.28515625 C-25.1305908 10.53231967 -40.28704878 23.9916949 -52.87988281 44.22900391 C-55.24958105 47.97568896 -57.77440551 51.62011672 -60.2734375 55.28125 C-62.06599589 58.10392113 -63.55532929 60.98657644 -65 64 C-65.66 64 -66.32 64 -67 64 C-67.3403125 65.0828125 -67.3403125 65.0828125 -67.6875 66.1875 C-69.24831013 69.53209313 -71.3031287 71.51603959 -74 74 C-72.69072753 70.48354579 -71.14481364 67.42342926 -69.12890625 64.26171875 C-68.56002686 63.36678711 -67.99114746 62.47185547 -67.4050293 61.54980469 C-66.79699463 60.60524414 -66.18895996 59.66068359 -65.5625 58.6875 C-64.93577393 57.71071289 -64.30904785 56.73392578 -63.66333008 55.72753906 C-47.82424201 31.14665922 -47.82424201 31.14665922 -38 21 C-37.47664063 20.40316406 -36.95328125 19.80632812 -36.4140625 19.19140625 C-29.41500516 11.49954882 -10.73942951 -3.94868954 0 0 Z " fill="#0555E4" transform="translate(346,402)"/>
<path d="M0 0 C3.58620225 1.65517027 6.81530529 3.66455721 10 6 C10.33 6.99 10.66 7.98 11 9 C12.1446875 9.1546875 12.1446875 9.1546875 13.3125 9.3125 C16.18416484 10.04711194 17.23042094 10.6716065 19 13 C19 13.66 19 14.32 19 15 C19.721875 15.0825 20.44375 15.165 21.1875 15.25 C24.56271412 16.1500571 26.29369635 17.83495708 29 20 C31.68507329 20.78946609 31.68507329 20.78946609 34 21 C34 21.66 34 22.32 34 23 C37.3 23.99 40.6 24.98 44 26 C44 26.66 44 27.32 44 28 C44.99 27.67 45.98 27.34 47 27 C49.6015625 27.70703125 49.6015625 27.70703125 52.625 28.8125 C57.72635139 30.60604082 62.70124557 31.94024911 68 33 C68 33.33 68 33.66 68 34 C41.1015973 31.82523553 18.87450239 20.06709935 0 1 C0 0.67 0 0.34 0 0 Z " fill="#8A0B6C" transform="translate(418,588)"/>
<path d="M0 0 C2.78754287 2.53804057 4.69655115 5.41250946 6.75 8.5625 C9.87543564 13.31362011 13.07760872 17.99390694 16.35546875 22.640625 C17.91930981 24.88423545 19.43459695 27.15276328 20.9375 29.4375 C23.83611592 33.82020727 26.92991791 38.04526125 30.04296875 42.27734375 C32.37344451 45.51954256 34.54512462 48.84657282 36.67578125 52.22265625 C38.05166645 54.2769737 38.05166645 54.2769737 41 56 C42.01866229 57.65532623 43.01810813 59.32260138 44 61 C45.58245275 62.75149165 45.58245275 62.75149165 47 64 C46.67 64.66 46.34 65.32 46 66 C32.94866217 53.78172629 23.78233707 38.8279287 13.99365234 24.00146484 C12.11411553 21.17180214 10.21331601 18.35821449 8.30078125 15.55078125 C7.74044189 14.72465332 7.18010254 13.89852539 6.6027832 13.04736328 C5.55837062 11.50961888 4.50896272 9.97525171 3.45385742 8.44482422 C0 3.33585456 0 3.33585456 0 0 Z " fill="#A8060F" transform="translate(705,590)"/>
<path d="M0 0 C0.495 1.485 0.495 1.485 1 3 C0.16339844 2.7834375 -0.67320312 2.566875 -1.53515625 2.34375 C-14.91047811 -0.85566254 -29.41328052 -2.41858058 -41.875 4.625 C-42.57625 5.07875 -43.2775 5.5325 -44 6 C-44.77601563 6.12503906 -45.55203125 6.25007813 -46.3515625 6.37890625 C-49.4642835 7.10888064 -51.04229467 8.29181621 -53.5 10.3125 C-54.27214844 10.93898438 -55.04429687 11.56546875 -55.83984375 12.2109375 C-56.55269531 12.80132812 -57.26554688 13.39171875 -58 14 C-59.010625 14.804375 -60.02125 15.60875 -61.0625 16.4375 C-62.0215625 17.2109375 -62.0215625 17.2109375 -63 18 C-63.66 17.34 -64.32 16.68 -65 16 C-64.34 16 -63.68 16 -63 16 C-63 15.34 -63 14.68 -63 14 C-45.75515124 -1.31872254 -22.29040288 -7.72691569 0 0 Z M-65 19 C-65 19.99 -65 20.98 -65 22 C-65.99 22.66 -66.98 23.32 -68 24 C-66.125 20.125 -66.125 20.125 -65 19 Z " fill="#D2090F" transform="translate(726,474)"/>
<path d="M0 0 C0.495 1.485 0.495 1.485 1 3 C-0.48281788 5.41886523 -1.98688244 7.61845642 -3.6875 9.875 C-4.13544922 10.48730469 -4.58339844 11.09960938 -5.04492188 11.73046875 C-8.98358576 17.08521702 -12.71341398 21.90289583 -18 26 C-19.0828125 27.11375 -19.0828125 27.11375 -20.1875 28.25 C-22 30 -22 30 -24 30 C-24 30.66 -24 31.32 -24 32 C-25.64556566 33.03435556 -27.3170608 34.02763513 -29 35 C-29.845625 35.70125 -30.69125 36.4025 -31.5625 37.125 C-33.85129043 38.88560802 -35.19281575 39.58412085 -38 40 C-38 39.01 -38 38.02 -38 37 C-35.6484375 35.23046875 -35.6484375 35.23046875 -32.375 33.1875 C-19.23293206 24.54063732 -9.3186359 12.51359678 0 0 Z M-41 40 C-40.01 40.33 -39.02 40.66 -38 41 C-38.99 41.33 -39.98 41.66 -41 42 C-41 41.34 -41 40.68 -41 40 Z " fill="#EE1723" transform="translate(521,523)"/>
<path d="M0 0 C0 3.68563771 -1.27136406 4.69391592 -3.7109375 7.3046875 C-5.14946658 9.00372391 -5.14946658 9.00372391 -5.796875 11.4453125 C-9.25927872 18.79729962 -22.2244405 23.21460153 -29.34375 26.1875 C-32.05013799 27.01533633 -34.18865525 27.16297651 -37 27 C-34.45537409 24.45537409 -31.84081368 23.49373329 -28.5625 22 C-22.07772839 18.92530935 -17.41708584 15.21026908 -12.3046875 10.13671875 C-10.19958565 8.18503957 -8.54874297 7.21143956 -6 6 C-4.2796626 4.5189121 -4.2796626 4.5189121 -2.75 2.875 C-1.8425 1.92625 -0.935 0.9775 0 0 Z " fill="#033AC6" transform="translate(258,647)"/>
<path d="M0 0 C0.495 1.485 0.495 1.485 1 3 C-0.54370117 5.21362305 -0.54370117 5.21362305 -2.85546875 7.82421875 C-8.22565167 14.14836349 -12.77265768 20.88292193 -17.3125 27.8125 C-18.16766675 29.10799908 -19.02347437 30.40307532 -19.87988281 31.69775391 C-21.66730988 34.4009102 -23.45195792 37.10587122 -25.23486328 39.81201172 C-29.4326835 46.1773766 -33.66985672 52.51653943 -37.90365601 58.85800171 C-40.04660793 62.06842222 -42.1873096 65.28034207 -44.328125 68.4921875 C-45.55208333 70.328125 -46.77604167 72.1640625 -48 74 C-48.66 73.67 -49.32 73.34 -50 73 C-49.14341797 71.72382812 -49.14341797 71.72382812 -48.26953125 70.421875 C-43.28901965 62.98453385 -38.36873213 55.51101942 -33.5 48 C-11.31930982 13.834712 -11.31930982 13.834712 0 0 Z " fill="#00A2FC" transform="translate(353,502)"/>
<path d="M0 0 C0.495 0.99 0.495 0.99 1 2 C-0.48288972 4.5723833 -2.02110432 7.00526672 -3.67578125 9.46484375 C-4.17338455 10.21837631 -4.67098785 10.97190887 -5.18367004 11.74827576 C-6.2441047 13.35324369 -7.30784507 14.95603149 -8.37457275 16.55682373 C-10.46182663 19.69417064 -12.52509126 22.84691031 -14.58859253 25.99990845 C-17.11514118 29.8583277 -19.65210983 33.70988752 -22.1875 37.5625 C-23.24549998 39.17118629 -24.30344291 40.77991011 -25.36132812 42.38867188 C-27.9068988 46.25954471 -30.45322636 50.12991854 -33 54 C-33.495 52.515 -33.495 52.515 -34 51 C-33.01439389 49.65599167 -32.01241685 48.32392972 -31 47 C-30.28566879 44.35065178 -30.28566879 44.35065178 -30 42 C-29.34 42 -28.68 42 -28 42 C-27.90589844 41.2575 -27.81179688 40.515 -27.71484375 39.75 C-26.89484276 36.59546067 -25.81065608 35.3182649 -23.5625 33 C-20.86947836 30.0875876 -19.29690396 27.78263656 -18 24 C-17.0206121 22.97980427 -16.02104551 21.97850195 -15 21 C-14.71125 20.38125 -14.4225 19.7625 -14.125 19.125 C-13 17 -13 17 -10.69921875 14.76171875 C-7.91542009 11.91346166 -5.85118727 9.02471257 -3.6875 5.6875 C-2.99011719 4.61886719 -2.29273438 3.55023438 -1.57421875 2.44921875 C-1.05472656 1.64097656 -0.53523437 0.83273437 0 0 Z " fill="#970644" transform="translate(640,502)"/>
<path d="M0 0 C1.11310547 0.05220703 2.22621094 0.10441406 3.37304688 0.15820312 C6.10320323 0.28709463 8.83291935 0.42202327 11.5625 0.5625 C11.5625 1.2225 11.5625 1.8825 11.5625 2.5625 C12.8825 2.2325 14.2025 1.9025 15.5625 1.5625 C15.5625 2.2225 15.5625 2.8825 15.5625 3.5625 C14.23412109 3.52322388 14.23412109 3.52322388 12.87890625 3.4831543 C-7.90485583 2.94923221 -24.2708519 3.34789666 -42.74633789 14.05859375 C-44.28088872 14.94571971 -45.85636862 15.76133692 -47.4375 16.5625 C-48.0975 16.2325 -48.7575 15.9025 -49.4375 15.5625 C-43.58233688 9.70733688 -37.29532636 7.04623253 -29.4375 4.5625 C-28.7775 4.5625 -28.1175 4.5625 -27.4375 4.5625 C-27.1075 3.9025 -26.7775 3.2425 -26.4375 2.5625 C-24.1275 2.5625 -21.8175 2.5625 -19.4375 2.5625 C-19.4375 1.9025 -19.4375 1.2425 -19.4375 0.5625 C-12.91101807 -0.70159621 -6.61405542 -0.34149722 0 0 Z " fill="#00B0FD" transform="translate(428.4375,460.4375)"/>
<path d="M0 0 C6.00080278 4.05936659 10.91962058 9.19149937 15.3125 14.9375 C15.3125 15.5975 15.3125 16.2575 15.3125 16.9375 C14.3225 16.6075 13.3325 16.2775 12.3125 15.9375 C12.3125 15.2775 12.3125 14.6175 12.3125 13.9375 C11.6525 13.9375 10.9925 13.9375 10.3125 13.9375 C9.24389005 12.77120548 8.2322002 11.55244068 7.25 10.3125 C3.55285426 5.96564664 -0.53138856 2.45360614 -5.6875 -0.0625 C-7.0075 -0.0625 -8.3275 -0.0625 -9.6875 -0.0625 C-9.6875 -0.7225 -9.6875 -1.3825 -9.6875 -2.0625 C-17.81607707 -3.75784568 -25.37858244 -4.20757706 -33.6328125 -3.9375 C-36.6875 -4.0625 -36.6875 -4.0625 -38.6875 -6.0625 C-25.89093153 -10.06753288 -11.20263434 -6.52702505 0 0 Z " fill="#FA4108" transform="translate(673.6875,283.0625)"/>
<path d="M0 0 C0.495 0.99 0.495 0.99 1 2 C-0.25627632 4.33383961 -1.56896784 6.51087495 -3.0078125 8.73046875 C-3.45391876 9.43044479 -3.90002502 10.13042084 -4.35964966 10.85160828 C-10.0890952 19.78773198 -15.99437284 28.61031853 -21.92480469 37.41381836 C-23.89943276 40.34881575 -25.86378334 43.29053308 -27.828125 46.23242188 C-29.09052509 48.10979255 -30.35352343 49.98676113 -31.6171875 51.86328125 C-32.19951141 52.73817703 -32.78183533 53.61307281 -33.38180542 54.51448059 C-33.92982819 55.32350327 -34.47785095 56.13252594 -35.04248047 56.96606445 C-35.51861786 57.67503372 -35.99475525 58.38400299 -36.48532104 59.11445618 C-38.12238199 61.15234687 -39.8529633 62.52395964 -42 64 C-40.67862227 61.24101223 -39.21683309 58.71783249 -37.5 56.1875 C-36.97019531 55.40117188 -36.44039063 54.61484375 -35.89453125 53.8046875 C-35.26933594 52.87914062 -34.64414062 51.95359375 -34 51 C-32.39233168 48.60650171 -30.78906179 46.21008799 -29.1875 43.8125 C-28.75977295 43.17248047 -28.3320459 42.53246094 -27.89135742 41.87304688 C-24.98281221 37.5083252 -22.13297511 33.10952397 -19.3125 28.6875 C-16.24633767 23.88415593 -13.0724892 19.1778017 -9.7734375 14.53125 C-6.42366915 9.75008284 -3.22068167 4.86866683 0 0 Z " fill="#00A2FC" transform="translate(302,577)"/>
<path d="M0 0 C1.56717773 0.00773437 1.56717773 0.00773437 3.16601562 0.015625 C8.10321905 0.06584449 12.83827421 0.21505336 17.6875 1.25 C15.6875 3.25 15.6875 3.25 13.06469727 3.42944336 C11.97213623 3.39987549 10.8795752 3.37030762 9.75390625 3.33984375 C8.54669922 3.31986328 7.33949219 3.29988281 6.09570312 3.27929688 C3.56693964 3.21893533 1.03828122 3.15396418 -1.49023438 3.08398438 C-8.51272865 2.9762888 -14.44935488 3.43264866 -21.12524414 5.69360352 C-23.3125 6.25 -23.3125 6.25 -26.3125 5.25 C-18.44589308 0.00559539 -9.16980146 -0.18443347 0 0 Z " fill="#002CC5" transform="translate(424.3125,462.75)"/>
<path d="M0 0 C3.3 1.65 6.6 3.3 10 5 C9.01 5.495 9.01 5.495 8 6 C8.11406002 8.86136296 8.11406002 8.86136296 9 12 C10.63604196 13.37073786 12.30678061 14.70055256 14 16 C15.11328125 17.73046875 15.11328125 17.73046875 16.125 19.625 C17.75642995 23.16836639 17.75642995 23.16836639 21 25 C21.33 25.99 21.66 26.98 22 28 C17.27192083 27.16651848 15.43579988 24.24012584 12.6875 20.5625 C12.20692139 19.93303467 11.72634277 19.30356934 11.23120117 18.6550293 C9.80765763 16.7794612 8.40135443 14.89218416 7 13 C5.87464844 11.49179687 5.87464844 11.49179687 4.7265625 9.953125 C0 3.43239796 0 3.43239796 0 0 Z " fill="#D20A3D" transform="translate(398,560)"/>
<path d="M0 0 C0.66 0 1.32 0 2 0 C1.34206835 1.67013418 0.67276716 3.3357865 0 5 C-0.40734375 6.0415625 -0.8146875 7.083125 -1.234375 8.15625 C-3.14058572 12.58235845 -5.72548326 16.46931487 -8.4375 20.4375 C-8.91509766 21.16904297 -9.39269531 21.90058594 -9.88476562 22.65429688 C-10.35462891 23.34458984 -10.82449219 24.03488281 -11.30859375 24.74609375 C-11.72939209 25.37185303 -12.15019043 25.9976123 -12.58374023 26.64233398 C-14 28 -14 28 -18 28 C-17.25 25.5625 -17.25 25.5625 -16 23 C-13.875 22.1875 -13.875 22.1875 -12 22 C-12.103125 21.278125 -12.20625 20.55625 -12.3125 19.8125 C-11.87340412 15.86063712 -9.88369891 14.60906092 -7 12 C-6.34 11.01 -5.68 10.02 -5 9 C-4.34 9 -3.68 9 -3 9 C-2.87625 8.2575 -2.7525 7.515 -2.625 6.75 C-2.04513299 4.19858515 -1.26291261 2.2732427 0 0 Z " fill="#7B0866" transform="translate(608,547)"/>
<path d="M0 0 C1.4540625 0.0309375 1.4540625 0.0309375 2.9375 0.0625 C1.48269262 2.97211476 -0.42556748 3.11568608 -3.4375 4.25 C-11.22423986 7.39250573 -18.23339115 11.53695418 -24.625 17 C-27.0625 19.0625 -27.0625 19.0625 -29.0625 19.0625 C-27.91053402 15.60660205 -26.8357186 14.38600747 -24.0625 12.0625 C-20.8125 10.8125 -20.8125 10.8125 -18.0625 10.0625 C-18.0625 9.4025 -18.0625 8.7425 -18.0625 8.0625 C-14.44739365 4.44739365 -10.73718228 3.09357306 -5.953125 1.67578125 C-0.83986163 0.01714003 -0.83986163 0.01714003 0 0 Z " fill="#F93B08" transform="translate(686.0625,459.9375)"/>
<path d="M0 0 C4.01282762 6.01924143 2.12436103 14.30409683 0.765625 21.1171875 C-0.90725643 27.41609821 -2.92799057 34.62298894 -8 39 C-9 36 -9 36 -8.0625 33.8125 C-7.711875 33.214375 -7.36125 32.61625 -7 32 C-6.34 32 -5.68 32 -5 32 C-4.8659375 31.26265625 -4.731875 30.5253125 -4.59375 29.765625 C-4.06539113 27.30458501 -3.34962998 25.11197134 -2.5 22.75 C-0.20374822 15.37959184 -0.25765744 7.6586454 0 0 Z " fill="#F0160F" transform="translate(695,318)"/>
<path d="M0 0 C6.21948598 5.65407816 10.80595546 12.64992959 14.82421875 19.99609375 C17.64576957 24.80491624 20.87703577 29.38377375 24 34 C23.67 34.66 23.34 35.32 23 36 C17.18581637 28.30670759 11.55823147 20.55137482 6.4375 12.375 C6.02064941 11.71306641 5.60379883 11.05113281 5.17431641 10.36914062 C3.09905071 7.00812183 1.32081236 3.7268327 0 0 Z " fill="#FC3C09" transform="translate(692,555)"/>
<path d="M0 0 C3.58620225 1.65517027 6.81530529 3.66455721 10 6 C10.33 6.99 10.66 7.98 11 9 C12.1446875 9.1546875 12.1446875 9.1546875 13.3125 9.3125 C16.18416484 10.04711194 17.23042094 10.6716065 19 13 C19 13.66 19 14.32 19 15 C19.78375 15.144375 20.5675 15.28875 21.375 15.4375 C24 16 24 16 26 17 C25.67 17.66 25.34 18.32 25 19 C21.27793316 18.46109459 19.0551524 17.61589531 16.15234375 15.234375 C15.46462891 14.67363281 14.77691406 14.11289062 14.06835938 13.53515625 C13.01358398 12.65150391 13.01358398 12.65150391 11.9375 11.75 C11.23044922 11.17636719 10.52339844 10.60273437 9.79492188 10.01171875 C6.07278472 6.94313995 2.84799843 3.93541602 0 0 Z " fill="#A30A55" transform="translate(418,588)"/>
<path d="M0 0 C0 3.65725087 -1.04218764 4.95451411 -3 8 C-3.6496875 9.175625 -3.6496875 9.175625 -4.3125 10.375 C-7.56522857 15.4348 -11.67133324 19.83782042 -16 24 C-15.56626729 18.76494709 -12.75776389 15.47690282 -9.6875 11.4375 C-9.20087891 10.77814453 -8.71425781 10.11878906 -8.21289062 9.43945312 C-5.67668144 6.04304916 -3.10916029 2.90237529 0 0 Z " fill="#F21814" transform="translate(538,501)"/>
<path d="M0 0 C2.78623224 2.78623224 2.54366852 5.56247973 2.75 9.3125 C2.79020264 10.02801025 2.83040527 10.74352051 2.87182617 11.48071289 C3.30366952 21.68967109 1.8305129 30.92520149 -3 40 C-3.66 39.34 -4.32 38.68 -5 38 C-4.6390625 37.2678125 -4.278125 36.535625 -3.90625 35.78125 C1.11219964 24.07153418 0.50301145 12.55826128 0 0 Z " fill="#076BE7" transform="translate(427,311)"/>
<path d="M0 0 C0.33 0.66 0.66 1.32 1 2 C0.21484375 3.62890625 0.21484375 3.62890625 -1.0625 5.5625 C-1.52672363 6.272854 -1.99094727 6.98320801 -2.46923828 7.71508789 C-2.97438965 8.46910889 -3.47954102 9.22312988 -4 10 C-4.5038623 10.76368896 -5.00772461 11.52737793 -5.52685547 12.31420898 C-7.00756129 14.54993754 -8.50066861 16.77672926 -10 19 C-10.59216309 19.88002686 -10.59216309 19.88002686 -11.19628906 20.77783203 C-15.18765176 26.68042222 -15.18765176 26.68042222 -17 29 C-17.33 29 -17.66 29 -18 29 C-18.1875 26.6875 -18.1875 26.6875 -18 24 C-16.625 22.4375 -16.625 22.4375 -15 21 C-14.71125 20.38125 -14.4225 19.7625 -14.125 19.125 C-13 17 -13 17 -10.69921875 14.76171875 C-7.91542009 11.91346166 -5.85118727 9.02471257 -3.6875 5.6875 C-2.99011719 4.61886719 -2.29273438 3.55023438 -1.57421875 2.44921875 C-1.05472656 1.64097656 -0.53523437 0.83273437 0 0 Z " fill="#BB072C" transform="translate(640,502)"/>
<path d="M0 0 C4.52391451 4.06744746 7.32994023 8.54110178 10.3125 13.8125 C10.76689453 14.60076172 11.22128906 15.38902344 11.68945312 16.20117188 C12.80009386 18.13017947 13.90332933 20.06302739 15 22 C14.34 22.66 13.68 23.32 13 24 C13 23.34 13 22.68 13 22 C12.34 22 11.68 22 11 22 C11 21.01 11 20.02 11 19 C10.01 19.33 9.02 19.66 8 20 C7.95875 19.195625 7.9175 18.39125 7.875 17.5625 C6.83653073 13.33444655 4.94217801 10.7080814 2.375 7.24609375 C0.8803304 4.80451699 0.39597197 2.81635061 0 0 Z " fill="#FA4208" transform="translate(752,493)"/>
<path d="M0 0 C0.33 0.99 0.66 1.98 1 3 C0.18660156 2.7834375 -0.62679687 2.566875 -1.46484375 2.34375 C-11.15268174 -0.0101004 -20.08330921 -0.32415333 -30 0 C-26.20464341 -7.59071318 -6.10297718 -2.11558267 0 0 Z " fill="#E0130F" transform="translate(726,474)"/>
<path d="M0 0 C3.79817468 1.30335977 6.10233213 2.80667471 8.9375 5.625 C13.84084893 10.16391084 19.22625092 13.17854239 25.05859375 16.3359375 C28 18 28 18 30 20 C18.23845654 18.16291871 7.04652373 9.26160408 0 0 Z " fill="#153CC3" transform="translate(375,532)"/>
<path d="M0 0 C3.56243355 3.31446834 6.27957419 6.97798487 9.0625 10.9375 C9.49626953 11.54529297 9.93003906 12.15308594 10.37695312 12.77929688 C12.73587465 16.10763821 14.95460418 19.46582428 17 23 C9.26502476 19.95874837 3.48559514 10.27428551 0 3 C0 2.01 0 1.02 0 0 Z " fill="#0726AA" transform="translate(359,509)"/>
<path d="M0 0 C1.91961295 2.87941942 3.24636665 5.67359312 4.6875 8.8125 C7.01470461 13.55267843 9.16814402 16.68572283 13.484375 19.71875 C15.31374567 21.26522829 16.05785423 22.82013331 17 25 C14 25 14 25 11.9140625 23.1640625 C0.22540367 10.1988266 0.22540367 10.1988266 -0.12109375 2.20703125 C-0.08113281 1.47871094 -0.04117188 0.75039063 0 0 Z " fill="#E9140D" transform="translate(601,340)"/>
<path d="M0 0 C0 3.81913805 -1.0531744 4.57189078 -3.5 7.4375 C-8.1228213 13.02616075 -12.06546746 18.9098459 -16 25 C-17 22 -17 22 -16.22265625 20.17578125 C-15.1484375 18.45052083 -14.07421875 16.72526042 -13 15 C-12.34 15 -11.68 15 -11 15 C-10.938125 14.278125 -10.87625 13.55625 -10.8125 12.8125 C-9.75482086 9.15130298 -7.72833857 7.59192164 -5 5 C-4.67 4.01 -4.34 3.02 -4 2 C-1.9375 0.8125 -1.9375 0.8125 0 0 Z " fill="#F21A0D" transform="translate(658,478)"/>
<path d="M0 0 C0.33 0.66 0.66 1.32 1 2 C-2.88676135 6.60748531 -6.92571177 11.04998458 -11.125 15.375 C-11.93195313 16.20773437 -12.73890625 17.04046875 -13.5703125 17.8984375 C-15.99781598 19.99811093 -17.96835067 21.01822032 -21 22 C-21 20 -21 20 -19.3125 18.0625 C-17 16 -17 16 -14.75 14.75 C-8.9018594 11.02845598 -4.13746492 5.5166199 0 0 Z " fill="#00A8FD" transform="translate(258,642)"/>
<path d="M0 0 C0.66 0.33 1.32 0.66 2 1 C1.3201001 1.62660522 1.3201001 1.62660522 0.62646484 2.26586914 C-1.46110566 4.19406484 -3.54305933 6.12822762 -5.625 8.0625 C-6.33785156 8.71927734 -7.05070312 9.37605469 -7.78515625 10.05273438 C-12.18282033 14.14780689 -16.17687968 18.36280832 -20 23 C-20 19.16374572 -19.11078647 17.11895402 -16.40625 14.39453125 C-15.7771875 13.87246094 -15.148125 13.35039062 -14.5 12.8125 C-11.11434161 9.9496271 -7.79028665 7.03497487 -4.5 4.0625 C-3.6440625 3.29035156 -2.788125 2.51820313 -1.90625 1.72265625 C-0.96265625 0.86994141 -0.96265625 0.86994141 0 0 Z " fill="#00ADFD" transform="translate(376,478)"/>
<path d="M0 0 C0 6.10764308 -4.54471953 13.06388505 -8 18 C-8.66 18 -9.32 18 -10 18 C-10.33 18.66 -10.66 19.32 -11 20 C-11.52481656 15.25944382 -10.04655548 13.14139349 -7.1875 9.4375 C-6.12595703 8.04337891 -6.12595703 8.04337891 -5.04296875 6.62109375 C-4.36878906 5.75613281 -3.69460938 4.89117187 -3 4 C-1.99751219 2.66853615 -0.99647584 1.33596919 0 0 Z " fill="#F5260E" transform="translate(562,464)"/>
<path d="M0 0 C-7.222277 3.37367134 -13.85353705 6.39738844 -22 6 C-18.6164619 3.05632185 -15.28626102 1.96686224 -11 0.75 C-9.783125 0.39421875 -8.56625 0.0384375 -7.3125 -0.328125 C-4.28420082 -0.94235549 -2.82045625 -1.09997794 0 0 Z " fill="#550B6C" transform="translate(545,617)"/>
<path d="M0 0 C0.33 0.66 0.66 1.32 1 2 C0.0390625 3.83984375 0.0390625 3.83984375 -1.375 5.9375 C-3.00525471 8.3737745 -4.06296245 10.18888736 -5 13 C-5.66 13 -6.32 13 -7 13 C-7.226875 13.721875 -7.45375 14.44375 -7.6875 15.1875 C-9.24831013 18.53209313 -11.3031287 20.51603959 -14 23 C-12.30087322 17.91279407 -9.36405858 13.69417219 -6.4375 9.25 C-5.93025391 8.47011719 -5.42300781 7.69023437 -4.90039062 6.88671875 C-1.16171288 1.16171288 -1.16171288 1.16171288 0 0 Z " fill="#0441DA" transform="translate(286,453)"/>
<path d="M0 0 C4.09887654 1.4137123 7.9336186 3.39548813 11.75 5.4375 C9.75 6.4375 9.75 6.4375 7.1484375 5.66015625 C5.65183594 5.08587891 5.65183594 5.08587891 4.125 4.5 C3.12210937 4.11972656 2.11921875 3.73945313 1.0859375 3.34765625 C0.31507813 3.04730469 -0.45578125 2.74695313 -1.25 2.4375 C-0.26 3.4275 0.73 4.4175 1.75 5.4375 C1.42 6.0975 1.09 6.7575 0.75 7.4375 C-1.89 5.7875 -4.53 4.1375 -7.25 2.4375 C-4.65344716 -0.26291496 -3.77212962 -0.65286859 0 0 Z " fill="#086EE9" transform="translate(445.25,464.5625)"/>
<path d="M0 0 C9.59453303 1.55808656 9.59453303 1.55808656 13 6 C9.62294375 5.46274105 6.303314 4.88935377 3 4 C3 4.99 3 5.98 3 7 C2.01 6.67 1.02 6.34 0 6 C-0.75 4.0625 -0.75 4.0625 -1 2 C-0.67 1.34 -0.34 0.68 0 0 Z " fill="#E80D35" transform="translate(406,566)"/>
<path d="M0 0 C0.99 0.33 1.98 0.66 3 1 C1.56760415 2.79574993 0.1288996 4.58646907 -1.3125 6.375 C-2.51326172 7.87160156 -2.51326172 7.87160156 -3.73828125 9.3984375 C-6 12 -6 12 -9 14 C-8.67 12.68 -8.34 11.36 -8 10 C-7.34 10 -6.68 10 -6 10 C-5.67 8.68 -5.34 7.36 -5 6 C-4.34 6 -3.68 6 -3 6 C-2.814375 5.071875 -2.814375 5.071875 -2.625 4.125 C-2 2 -2 2 0 0 Z " fill="#660968" transform="translate(590,576)"/>
<path d="M0 0 C3.3 1.65 6.6 3.3 10 5 C8.02 5.99 8.02 5.99 6 7 C5.67 7.99 5.34 8.98 5 10 C4.15801693 8.90241493 3.32669329 7.79664683 2.5 6.6875 C2.0359375 6.07261719 1.571875 5.45773437 1.09375 4.82421875 C0 3 0 3 0 0 Z " fill="#C41950" transform="translate(398,560)"/>
<path d="M0 0 C0.33 0.99 0.66 1.98 1 3 C-0.3984375 5.41015625 -0.3984375 5.41015625 -2.375 8.0625 C-4.89507622 11.40431208 -4.89507622 11.40431208 -7 15 C-7.66 15 -8.32 15 -9 15 C-7.68262072 11.41061876 -6.09204262 8.40505503 -3.9375 5.25 C-3.41027344 4.47140625 -2.88304687 3.6928125 -2.33984375 2.890625 C-1 1 -1 1 0 0 Z " fill="#0727A1" transform="translate(354,512)"/>
<path d="M0 0 C2.99324263 1.0975223 3.84610901 1.67682892 5.25 4.625 C5.4975 5.40875 5.745 6.1925 6 7 C5.01 7.33 4.02 7.66 3 8 C3 7.34 3 6.68 3 6 C0.36 6 -2.28 6 -5 6 C-4.360625 5.7525 -3.72125 5.505 -3.0625 5.25 C-0.81258459 4.18437567 -0.81258459 4.18437567 -0.25 1.875 C-0.1675 1.25625 -0.085 0.6375 0 0 Z " fill="#EF1C11" transform="translate(861,671)"/>
<path d="M0 0 C0.886875 0.309375 1.77375 0.61875 2.6875 0.9375 C5.46709155 1.8290671 8.13136375 2.49377007 11 3 C11 3.66 11 4.32 11 5 C11.66 5.33 12.32 5.66 13 6 C11.296875 6.6796875 11.296875 6.6796875 9 7 C6.640625 5.8203125 6.640625 5.8203125 4.25 4.125 C3.45078125 3.57070313 2.6515625 3.01640625 1.828125 2.4453125 C1.22484375 1.96835937 0.6215625 1.49140625 0 1 C0 0.67 0 0.34 0 0 Z " fill="#8E095C" transform="translate(441,606)"/>
<path d="M0 0 C0.66 0 1.32 0 2 0 C1.34206835 1.67013418 0.67276716 3.3357865 0 5 C-0.474375 6.19625 -0.94875 7.3925 -1.4375 8.625 C-3.55079559 13.18971848 -3.55079559 13.18971848 -6 15 C-6.66 15 -7.32 15 -8 15 C-7.1875 12.5625 -7.1875 12.5625 -6 10 C-5.01 9.67 -4.02 9.34 -3 9 C-2.814375 7.88625 -2.814375 7.88625 -2.625 6.75 C-2.04513299 4.19858515 -1.26291261 2.2732427 0 0 Z " fill="#970865" transform="translate(608,547)"/>
<path d="M0 0 C-3.55778921 3.55778921 -8.64709495 3.95168196 -13.5 4.125 C-14.325 4.08375 -15.15 4.0425 -16 4 C-10.75543553 -0.3080351 -6.5705829 -0.10950972 0 0 Z " fill="#EC0D25" transform="translate(466,570)"/>
<path d="M0 0 C0.66 0.66 1.32 1.32 2 2 C-0.11997834 3.19733988 -2.24513676 4.38298713 -4.375 5.5625 C-4.97828125 5.90474609 -5.5815625 6.24699219 -6.203125 6.59960938 C-7.76978241 7.46127095 -9.38290862 8.23718183 -11 9 C-11.66 8.67 -12.32 8.34 -13 8 C-8.91193811 4.15383526 -5.59282842 1.36410449 0 0 Z " fill="#00A6FC" transform="translate(392,468)"/>
<path d="M0 0 C4.93912821 4.23353847 7.32134512 9.12975632 10 15 C9.01 15.495 9.01 15.495 8 16 C6.85121668 13.89739659 5.70588808 11.79303461 4.5625 9.6875 C4.23701172 9.09259766 3.91152344 8.49769531 3.57617188 7.88476562 C2.16262616 5.27626374 0.94051367 2.82154101 0 0 Z " fill="#EF1D0E" transform="translate(848,649)"/>
<path d="M0 0 C-1.42915851 1.34227046 -2.86862672 2.67357096 -4.3125 4 C-5.11300781 4.7425 -5.91351562 5.485 -6.73828125 6.25 C-9 8 -9 8 -12 8 C-10.65880187 3.97640561 -8.48912622 1.94762578 -4.9375 -0.3125 C-3 -1 -3 -1 0 0 Z " fill="#F72B0A" transform="translate(669,471)"/>
<path d="M0 0 C4.37934119 0.51958285 8.68803391 1.05675742 13 2 C13.66 3.98 14.32 5.96 15 8 C12 7 12 7 10.3125 5.625 C7.07950068 3.35316264 3.72697275 2.30444046 0 1 C0 0.67 0 0.34 0 0 Z " fill="#02AAFC" transform="translate(444,464)"/>
<path d="M0 0 C1.53187502 2.29781252 2.85984978 4.49622866 4.125 6.9375 C4.47820312 7.60652344 4.83140625 8.27554687 5.1953125 8.96484375 C6 11 6 11 6 15 C2.87222635 13.43611317 2.32878244 11.17752323 1 8 C0.49033486 5.32185392 0.23475054 2.72310621 0 0 Z " fill="#1A79E4" transform="translate(457,464)"/>
<path d="M0 0 C0.66 0.33 1.32 0.66 2 1 C0.4169423 5.2742558 -2.50568404 7.26531794 -6 10 C-4.6302836 6.00499382 -2.74277578 3.19990508 0 0 Z " fill="#0036C5" transform="translate(302,583)"/>
<path d="M0 0 C0.33 0.66 0.66 1.32 1 2 C-2.96 7.94 -2.96 7.94 -7 14 C-8 11 -8 11 -7.22265625 9.17578125 C-6.1484375 7.45052083 -5.07421875 5.72526042 -4 4 C-3.34 4 -2.68 4 -2 4 C-1.34 2.68 -0.68 1.36 0 0 Z " fill="#DC0E13" transform="translate(649,489)"/>
<path d="M0 0 C-3.09423168 3.09423168 -6.5523812 3.93706005 -10.875 4.125 C-11.57625 4.08375 -12.2775 4.0425 -13 4 C-9.08551457 0.08551457 -5.39882952 -1.74668014 0 0 Z " fill="#0744CC" transform="translate(234,670)"/>
<path d="M0 0 C3.465 1.98 3.465 1.98 7 4 C7 4.66 7 5.32 7 6 C4.125 5.75 4.125 5.75 1 5 C-0.375 2.9375 -0.375 2.9375 -1 1 C-0.67 0.67 -0.34 0.34 0 0 Z " fill="#D5001C" transform="translate(770,663)"/>
<path d="M0 0 C0 0.33 0 0.66 0 1 C-6.25307239 1.83288874 -11.76817361 2.03863773 -18 1 C-18 0.67 -18 0.34 -18 0 C-11.67370431 -0.90375653 -6.32629569 -0.90375653 0 0 Z " fill="#590B5F" transform="translate(511,624)"/>
<path d="M0 0 C9.24641834 4.49283668 9.24641834 4.49283668 11 8 C8.087425 7.91433603 6.43201976 7.42089045 4.33203125 5.375 C2.83908228 3.61608625 1.39563738 1.83686981 0 0 Z " fill="#AD0F51" transform="translate(418,588)"/>
<path d="M0 0 C-1.0975223 2.99324263 -1.67682892 3.84610901 -4.625 5.25 C-5.40875 5.4975 -6.1925 5.745 -7 6 C-6.67 4.35 -6.34 2.7 -6 1 C-3 0 -3 0 0 0 Z " fill="#1B89E6" transform="translate(494,535)"/>
<path d="M0 0 C1.50433594 0.01353516 1.50433594 0.01353516 3.0390625 0.02734375 C3.80992187 0.03894531 4.58078125 0.05054688 5.375 0.0625 C5.375 0.3925 5.375 0.7225 5.375 1.0625 C3.77450296 1.45286513 2.16937629 1.82428619 0.5625 2.1875 C-0.33082031 2.39632812 -1.22414063 2.60515625 -2.14453125 2.8203125 C-4.625 3.0625 -4.625 3.0625 -7.625 1.0625 C-4.98041621 -0.25979189 -2.94738699 -0.03427194 0 0 Z " fill="#D71741" transform="translate(434.625,571.9375)"/>
<path d="M0 0 C2.94751667 2.74423966 5.22773678 5.36219655 7 9 C6.67 9.99 6.34 10.98 6 12 C3.21355437 8.09897612 1.31860889 4.61513112 0 0 Z " fill="#F82906" transform="translate(825,612)"/>
<path d="M0 0 C1.9375 0.375 1.9375 0.375 4 1 C4.33 1.66 4.66 2.32 5 3 C5.99 3.66 6.98 4.32 8 5 C8.33 5.99 8.66 6.98 9 8 C6.46089803 7.61479436 5.27248877 7.29902057 3.515625 5.37109375 C3.09796875 4.73300781 2.6803125 4.09492187 2.25 3.4375 C1.82203125 2.79683594 1.3940625 2.15617188 0.953125 1.49609375 C0.48132813 0.75552734 0.48132813 0.75552734 0 0 Z " fill="#C00B45" transform="translate(411,580)"/>
<path d="M0 0 C2.96404505 2.80804268 5.44499019 5.18315774 7 9 C4.13998967 7.71792641 1.92960588 6.50848764 0 4 C0 2.68 0 1.36 0 0 Z " fill="#092FB7" transform="translate(369,523)"/>
<path d="M0 0 C0 3.99904969 -1.72586967 5.80200422 -4 9 C-4.33 8.01 -4.66 7.02 -5 6 C-2.66666667 1.33333333 -2.66666667 1.33333333 0 0 Z " fill="#BE085A" transform="translate(617,535)"/>
<path d="M0 0 C2.97 1.98 2.97 1.98 6 4 C5.67 5.32 5.34 6.64 5 8 C4.38125 7.21625 3.7625 6.4325 3.125 5.625 C1.10141339 3.03162353 1.10141339 3.03162353 -1 1 C-0.67 0.67 -0.34 0.34 0 0 Z " fill="#06A1F8" transform="translate(473,510)"/>
<path d="M0 0 C1.32 0 2.64 0 4 0 C4 1.65 4 3.3 4 5 C3.01 5 2.02 5 1 5 C0.67 3.35 0.34 1.7 0 0 Z " fill="#A80617" transform="translate(649,507)"/>
<path d="M0 0 C0.66 0.99 1.32 1.98 2 3 C1.01 3.495 1.01 3.495 0 4 C-0.66 3.34 -1.32 2.68 -2 2 C-1.34 2 -0.68 2 0 2 C0 1.34 0 0.68 0 0 Z M-2 5 C-2 5.99 -2 6.98 -2 8 C-2.99 8.66 -3.98 9.32 -5 10 C-3.125 6.125 -3.125 6.125 -2 5 Z " fill="#DB0418" transform="translate(663,488)"/>
<path d="M0 0 C3.3 0 6.6 0 10 0 C9.01 0.495 9.01 0.495 8 1 C7.67 1.99 7.34 2.98 7 4 C6.67 3.34 6.34 2.68 6 2 C2.97065509 1.34227572 2.97065509 1.34227572 0 1 C0 0.67 0 0.34 0 0 Z " fill="#DC173C" transform="translate(442,572)"/>
<path d="M0 0 C0.33 0.66 0.66 1.32 1 2 C0.67 2.61875 0.34 3.2375 0 3.875 C-1.19532222 6.41505971 -0.92300522 7.41558539 0 10 C-1.32 9.34 -2.64 8.68 -4 8 C-1.125 1.125 -1.125 1.125 0 0 Z " fill="#DB011D" transform="translate(657,498)"/>
<path d="M0 0 C0 0.66 0 1.32 0 2 C-0.99 2 -1.98 2 -3 2 C-3 2.66 -3 3.32 -3 4 C-4.65 4.33 -6.3 4.66 -8 5 C-8 4.34 -8 3.68 -8 3 C-2.25 0 -2.25 0 0 0 Z " fill="#E31530" transform="translate(483,561)"/>
<path d="M0 0 C0.66 0.99 1.32 1.98 2 3 C1.67 3.99 1.34 4.98 1 6 C-0.65 6.33 -2.3 6.66 -4 7 C-2.79618552 4.50638429 -1.54571278 2.31856917 0 0 Z " fill="#EC1C1B" transform="translate(531,509)"/>
<path d="M0 0 C3 1 3 1 4.75 3.375 C6 6 6 6 5 9 C4.16094435 7.87926138 3.32892169 6.75325453 2.5 5.625 C2.0359375 4.99851562 1.571875 4.37203125 1.09375 3.7265625 C0 2 0 2 0 0 Z " fill="#EC0224" transform="translate(661,512)"/>
<path d="M0 0 C0.33 0.66 0.66 1.32 1 2 C0.34 2.66 -0.32 3.32 -1 4 C-0.67 2.68 -0.34 1.36 0 0 Z " fill="#F32B13" transform="translate(665,480)"/>
<path d="M0 0 C0.66 1.32 1.32 2.64 2 4 C1.34 3.67 0.68 3.34 0 3 C0 2.01 0 1.02 0 0 Z " fill="#F1371B" transform="translate(601,347)"/>
<path d="M0 0 C4 1 4 1 4 1 Z " fill="#983C85" transform="translate(419,568)"/>
<path d="M0 0 C4 1 4 1 4 1 Z " fill="#F94A13" transform="translate(626,400)"/>
<path d="" fill="#744BA3" transform="translate(0,0)"/>
<path d="M0 0 C3 1 3 1 3 1 Z " fill="#725BB2" transform="translate(448,559)"/>
<path d="M0 0 C3 1 3 1 3 1 Z " fill="#FB4710" transform="translate(685,463)"/>
<path d="M0 0 C3 1 3 1 3 1 Z " fill="#FA510F" transform="translate(716,460)"/>
<path d="M0 0 C3 1 3 1 3 1 Z " fill="#F85811" transform="translate(677,400)"/>
<path d="M0 0 C3 1 3 1 3 1 Z " fill="#F45212" transform="translate(649,274)"/>
<path d="M0 0 C2 1 2 1 2 1 Z " fill="#9C246F" transform="translate(438,607)"/>
<path d="M0 0 C2 1 2 1 2 1 Z " fill="#A1337A" transform="translate(404,575)"/>
<path d="" fill="#D61A1C" transform="translate(0,0)"/>
<path d="" fill="#D6161D" transform="translate(0,0)"/>
<path d="" fill="#1D55D2" transform="translate(0,0)"/>
<path d="M0 0 C2 1 2 1 2 1 Z " fill="#EF2614" transform="translate(667,482)"/>
<path d="M0 0 C2 1 2 1 2 1 Z " fill="#F04A16" transform="translate(740,480)"/>
<path d="M0 0 C2 1 2 1 2 1 Z " fill="#F02E12" transform="translate(679,475)"/>
<path d="" fill="#F84511" transform="translate(0,0)"/>
<path d="M0 0 C2 1 2 1 2 1 Z " fill="#F34213" transform="translate(724,472)"/>
<path d="M0 0 C2 1 2 1 2 1 Z " fill="#EF3115" transform="translate(688,472)"/>
<path d="M0 0 C2 1 2 1 2 1 Z " fill="#2695EB" transform="translate(462,470)"/>
<path d="M0 0 C2 1 2 1 2 1 Z " fill="#F75013" transform="translate(736,469)"/>
<path d="M0 0 C2 1 2 1 2 1 Z " fill="#0A6FF1" transform="translate(297,432)"/>
<path d="M0 0 C2 1 2 1 2 1 Z " fill="#FC600E" transform="translate(700,411)"/>
<path d="" fill="#158FF2" transform="translate(0,0)"/>
<path d="" fill="#F54918" transform="translate(0,0)"/>
<path d="" fill="#686869" transform="translate(0,0)"/>
<path d="" fill="#645653" transform="translate(0,0)"/>
<path d="" fill="#D4442A" transform="translate(0,0)"/>
<path d="" fill="#2773D2" transform="translate(0,0)"/>
<path d="" fill="#1477E6" transform="translate(0,0)"/>
<path d="" fill="#D11C26" transform="translate(0,0)"/>
<path d="" fill="#DF3A24" transform="translate(0,0)"/>
<path d="" fill="#C91A25" transform="translate(0,0)"/>
<path d="" fill="#E74123" transform="translate(0,0)"/>
<path d="" fill="#EE3F1E" transform="translate(0,0)"/>
<path d="" fill="#EC3E1C" transform="translate(0,0)"/>
<path d="" fill="#CA1823" transform="translate(0,0)"/>
<path d="" fill="#F5441A" transform="translate(0,0)"/>
<path d="" fill="#0A6EEF" transform="translate(0,0)"/>
<path d="" fill="#741C78" transform="translate(0,0)"/>
<path d="" fill="#8B2274" transform="translate(0,0)"/>
<path d="" fill="#762178" transform="translate(0,0)"/>
<path d="" fill="#8E2275" transform="translate(0,0)"/>
<path d="" fill="#8D2171" transform="translate(0,0)"/>
<path d="" fill="#F34818" transform="translate(0,0)"/>
<path d="" fill="#F44A19" transform="translate(0,0)"/>
<path d="" fill="#972371" transform="translate(0,0)"/>
<path d="" fill="#771E79" transform="translate(0,0)"/>
<path d="" fill="#F74D14" transform="translate(0,0)"/>
<path d="" fill="#0466EE" transform="translate(0,0)"/>
<path d="" fill="#A0216F" transform="translate(0,0)"/>
<path d="" fill="#A11D6C" transform="translate(0,0)"/>
<path d="" fill="#D6171B" transform="translate(0,0)"/>
<path d="" fill="#D9191B" transform="translate(0,0)"/>
<path d="" fill="#7D1C74" transform="translate(0,0)"/>
<path d="" fill="#A72A71" transform="translate(0,0)"/>
<path d="" fill="#FA5014" transform="translate(0,0)"/>
<path d="" fill="#D11A1C" transform="translate(0,0)"/>
<path d="" fill="#D01D1E" transform="translate(0,0)"/>
<path d="" fill="#A9296F" transform="translate(0,0)"/>
<path d="" fill="#AC2670" transform="translate(0,0)"/>
<path d="" fill="#0965EC" transform="translate(0,0)"/>
<path d="" fill="#D61A1D" transform="translate(0,0)"/>
<path d="" fill="#AC296C" transform="translate(0,0)"/>
<path d="" fill="#993580" transform="translate(0,0)"/>
<path d="" fill="#A1327F" transform="translate(0,0)"/>
<path d="" fill="#A14387" transform="translate(0,0)"/>
<path d="" fill="#9E418A" transform="translate(0,0)"/>
<path d="" fill="#A03E85" transform="translate(0,0)"/>
<path d="" fill="#9A3781" transform="translate(0,0)"/>
<path d="" fill="#D0181D" transform="translate(0,0)"/>
<path d="" fill="#B23E79" transform="translate(0,0)"/>
<path d="" fill="#D01A1E" transform="translate(0,0)"/>
<path d="" fill="#71489C" transform="translate(0,0)"/>
<path d="" fill="#FA610F" transform="translate(0,0)"/>
<path d="" fill="#D2191E" transform="translate(0,0)"/>
<path d="" fill="#6B49AC" transform="translate(0,0)"/>
<path d="" fill="#6A47A9" transform="translate(0,0)"/>
<path d="" fill="#A5195D" transform="translate(0,0)"/>
<path d="" fill="#6950B2" transform="translate(0,0)"/>
<path d="" fill="#715DB3" transform="translate(0,0)"/>
<path d="" fill="#5E57BA" transform="translate(0,0)"/>
<path d="" fill="#5F54B8" transform="translate(0,0)"/>
<path d="" fill="#B1446F" transform="translate(0,0)"/>
<path d="" fill="#4658C3" transform="translate(0,0)"/>
<path d="" fill="#3D54C5" transform="translate(0,0)"/>
<path d="" fill="#AE1858" transform="translate(0,0)"/>
<path d="" fill="#B9456D" transform="translate(0,0)"/>
<path d="" fill="#AF4C77" transform="translate(0,0)"/>
<path d="" fill="#6B68B2" transform="translate(0,0)"/>
<path d="" fill="#2A59D1" transform="translate(0,0)"/>
<path d="" fill="#8367AD" transform="translate(0,0)"/>
<path d="" fill="#2959CE" transform="translate(0,0)"/>
<path d="" fill="#2759D2" transform="translate(0,0)"/>
<path d="" fill="#1E56D2" transform="translate(0,0)"/>
<path d="" fill="#D31620" transform="translate(0,0)"/>
<path d="" fill="#0763EE" transform="translate(0,0)"/>
<path d="" fill="#0664EF" transform="translate(0,0)"/>
<path d="" fill="#8873AE" transform="translate(0,0)"/>
<path d="" fill="#787CB8" transform="translate(0,0)"/>
<path d="" fill="#6F7CC0" transform="translate(0,0)"/>
<path d="" fill="#6779C3" transform="translate(0,0)"/>
<path d="" fill="#D41421" transform="translate(0,0)"/>
<path d="" fill="#D41321" transform="translate(0,0)"/>
<path d="" fill="#458CDC" transform="translate(0,0)"/>
<path d="" fill="#D33F50" transform="translate(0,0)"/>
<path d="" fill="#CD1422" transform="translate(0,0)"/>
<path d="" fill="#D01622" transform="translate(0,0)"/>
<path d="" fill="#D14956" transform="translate(0,0)"/>
<path d="" fill="#F85F11" transform="translate(0,0)"/>
<path d="" fill="#2D97EA" transform="translate(0,0)"/>
<path d="" fill="#F85F11" transform="translate(0,0)"/>
<path d="" fill="#D9464A" transform="translate(0,0)"/>
<path d="" fill="#2898F1" transform="translate(0,0)"/>
<path d="" fill="#EB231E" transform="translate(0,0)"/>
<path d="" fill="#EA231D" transform="translate(0,0)"/>
<path d="" fill="#ED231A" transform="translate(0,0)"/>
<path d="" fill="#E34536" transform="translate(0,0)"/>
<path d="" fill="#E54534" transform="translate(0,0)"/>
<path d="" fill="#EF4918" transform="translate(0,0)"/>
<path d="" fill="#EF2713" transform="translate(0,0)"/>
<path d="" fill="#F53113" transform="translate(0,0)"/>
<path d="" fill="#1D8FF0" transform="translate(0,0)"/>
<path d="" fill="#F64515" transform="translate(0,0)"/>
<path d="" fill="#EC4730" transform="translate(0,0)"/>
<path d="" fill="#F54111" transform="translate(0,0)"/>
<path d="" fill="#FA4412" transform="translate(0,0)"/>
<path d="" fill="#F34213" transform="translate(0,0)"/>
<path d="" fill="#F33313" transform="translate(0,0)"/>
<path d="" fill="#F33213" transform="translate(0,0)"/>
<path d="" fill="#F63B11" transform="translate(0,0)"/>
<path d="" fill="#1888F2" transform="translate(0,0)"/>
<path d="" fill="#0766F2" transform="translate(0,0)"/>
<path d="" fill="#F53D11" transform="translate(0,0)"/>
<path d="" fill="#F85415" transform="translate(0,0)"/>
<path d="" fill="#2996EA" transform="translate(0,0)"/>
<path d="" fill="#F95412" transform="translate(0,0)"/>
<path d="" fill="#F85411" transform="translate(0,0)"/>
<path d="" fill="#FE5214" transform="translate(0,0)"/>
<path d="" fill="#FA4D0F" transform="translate(0,0)"/>
<path d="" fill="#FB4A11" transform="translate(0,0)"/>
<path d="" fill="#FE5211" transform="translate(0,0)"/>
<path d="" fill="#FA510E" transform="translate(0,0)"/>
<path d="" fill="#FE4E11" transform="translate(0,0)"/>
<path d="" fill="#F04D27" transform="translate(0,0)"/>
<path d="" fill="#1E99F3" transform="translate(0,0)"/>
<path d="" fill="#EF4D25" transform="translate(0,0)"/>
<path d="" fill="#F45122" transform="translate(0,0)"/>
<path d="" fill="#0B75EF" transform="translate(0,0)"/>
<path d="" fill="#0B75EF" transform="translate(0,0)"/>
<path d="" fill="#F7650D" transform="translate(0,0)"/>
<path d="" fill="#F2501F" transform="translate(0,0)"/>
<path d="" fill="#F96910" transform="translate(0,0)"/>
<path d="" fill="#F6541B" transform="translate(0,0)"/>
<path d="" fill="#F7501B" transform="translate(0,0)"/>
<path d="" fill="#FA640E" transform="translate(0,0)"/>
<path d="" fill="#FB600D" transform="translate(0,0)"/>
<path d="" fill="#0E96FA" transform="translate(0,0)"/>
<path d="" fill="#F84F14" transform="translate(0,0)"/>
<path d="" fill="#FA4A13" transform="translate(0,0)"/>
<path d="" fill="#0C94F9" transform="translate(0,0)"/>
<path d="" fill="#0B91F9" transform="translate(0,0)"/>
<path d="" fill="#FB4D11" transform="translate(0,0)"/>
<path d="" fill="#0B88F9" transform="translate(0,0)"/>
<path d="" fill="#0883F9" transform="translate(0,0)"/>
<path d="" fill="#EF2E17" transform="translate(0,0)"/>
<path d="" fill="#EF301B" transform="translate(0,0)"/>
<path d="" fill="#0477F3" transform="translate(0,0)"/>
<path d="" fill="#F22F19" transform="translate(0,0)"/>
<path d="" fill="#F43019" transform="translate(0,0)"/>
<path d="" fill="#EE3319" transform="translate(0,0)"/>
<path d="" fill="#ED3419" transform="translate(0,0)"/>
<path d="" fill="#EF371A" transform="translate(0,0)"/>
<path d="" fill="#F0341C" transform="translate(0,0)"/>
<path d="" fill="#F0421A" transform="translate(0,0)"/>
<path d="" fill="#F3471C" transform="translate(0,0)"/>
<path d="" fill="#F0491A" transform="translate(0,0)"/>
<path d="" fill="#137CED" transform="translate(0,0)"/>
<path d="" fill="#107EEE" transform="translate(0,0)"/>
<path d="" fill="#F64E16" transform="translate(0,0)"/>
<path d="" fill="#0F7FED" transform="translate(0,0)"/>
<path d="" fill="#F14F17" transform="translate(0,0)"/>
<path d="" fill="#F85711" transform="translate(0,0)"/>
<path d="" fill="#F15115" transform="translate(0,0)"/>
<path d="" fill="#F24E13" transform="translate(0,0)"/>
<path d="" fill="#F54D14" transform="translate(0,0)"/>
<path d="" fill="#F15217" transform="translate(0,0)"/>
<path d="" fill="#F55712" transform="translate(0,0)"/>
<path d="" fill="#F55311" transform="translate(0,0)"/>
<path d="" fill="#F55114" transform="translate(0,0)"/>
<path d="" fill="#F45613" transform="translate(0,0)"/>
<path d="" fill="#F45211" transform="translate(0,0)"/>
</svg>
